{
	"patcher" : 	{
		"fileversion" : 1,
		"appversion" : 		{
			"major" : 7,
			"minor" : 2,
			"revision" : 5,
			"architecture" : "x86",
			"modernui" : 1
		}
,
		"rect" : [ 34.0, 79.0, 1219.0, 1323.0 ],
		"bglocked" : 0,
		"openinpresentation" : 1,
		"default_fontsize" : 12.0,
		"default_fontface" : 0,
		"default_fontname" : "Arial",
		"gridonopen" : 1,
		"gridsize" : [ 15.0, 15.0 ],
		"gridsnaponopen" : 1,
		"objectsnaponopen" : 1,
		"statusbarvisible" : 2,
		"toolbarvisible" : 1,
		"lefttoolbarpinned" : 0,
		"toptoolbarpinned" : 0,
		"righttoolbarpinned" : 0,
		"bottomtoolbarpinned" : 0,
		"toolbars_unpinned_last_save" : 0,
		"tallnewobj" : 0,
		"boxanimatetime" : 200,
		"enablehscroll" : 1,
		"enablevscroll" : 1,
		"devicewidth" : 0.0,
		"description" : "",
		"digest" : "",
		"tags" : "",
		"style" : "",
		"subpatcher_template" : "",
		"boxes" : [ 			{
				"box" : 				{
					"id" : "obj-26",
					"linecount" : 5,
					"maxclass" : "comment",
					"numinlets" : 1,
					"numoutlets" : 0,
					"patching_rect" : [ 743.5, 142.0, 382.500122, 74.0 ],
					"style" : "",
					"text" : "Check that the host address and ports match the inverse of the settings for each device\n(i.e. the host address in udpsend for tophoneudp should be the IP address of the Android device; the port for udpreceive for fromkinectudp should be the outgoing port from the Kinect patch)"
				}

			}
, 			{
				"box" : 				{
					"id" : "obj-11",
					"linecount" : 2,
					"maxclass" : "comment",
					"numinlets" : 1,
					"numoutlets" : 0,
					"patching_rect" : [ 951.833374, 219.5, 174.166748, 33.0 ],
					"presentation" : 1,
					"presentation_linecount" : 2,
					"presentation_rect" : [ 902.499939, 566.5, 174.166748, 33.0 ],
					"style" : "",
					"text" : "KinectUDP:\nWindows computer IP Settings"
				}

			}
, 			{
				"box" : 				{
					"id" : "obj-4",
					"linecount" : 2,
					"maxclass" : "comment",
					"numinlets" : 1,
					"numoutlets" : 0,
					"patching_rect" : [ 743.5, 219.5, 154.0, 33.0 ],
					"presentation" : 1,
					"presentation_linecount" : 2,
					"presentation_rect" : [ 702.666687, 566.5, 154.0, 33.0 ],
					"style" : "",
					"text" : "PhoneUDP:\nTouchOSC IP Settings"
				}

			}
, 			{
				"box" : 				{
					"id" : "obj-156",
					"maxclass" : "message",
					"numinlets" : 2,
					"numoutlets" : 1,
					"outlettype" : [ "" ],
					"patching_rect" : [ 749.5, 571.333313, 50.0, 22.0 ],
					"presentation" : 1,
					"presentation_rect" : [ 712.166687, 161.0, 128.0, 22.0 ],
					"style" : "",
					"text" : "l_hand",
					"textjustification" : 1
				}

			}
, 			{
				"box" : 				{
					"id" : "obj-44",
					"maxclass" : "newobj",
					"numinlets" : 2,
					"numoutlets" : 2,
					"outlettype" : [ "", "" ],
					"patching_rect" : [ 1179.5, 688.333374, 57.0, 22.0 ],
					"style" : "",
					"text" : "zl.slice 1"
				}

			}
, 			{
				"box" : 				{
					"id" : "obj-159",
					"maxclass" : "newobj",
					"numinlets" : 2,
					"numoutlets" : 2,
					"outlettype" : [ "", "" ],
					"patching_rect" : [ 1141.5, 648.0, 57.0, 22.0 ],
					"style" : "",
					"text" : "zl.slice 1"
				}

			}
, 			{
				"box" : 				{
					"id" : "obj-160",
					"maxclass" : "newobj",
					"numinlets" : 2,
					"numoutlets" : 2,
					"outlettype" : [ "", "" ],
					"patching_rect" : [ 1103.5, 607.666626, 57.0, 22.0 ],
					"style" : "",
					"text" : "zl.slice 1"
				}

			}
, 			{
				"box" : 				{
					"id" : "obj-161",
					"maxclass" : "newobj",
					"numinlets" : 2,
					"numoutlets" : 2,
					"outlettype" : [ "", "" ],
					"patching_rect" : [ 1065.5, 571.333313, 57.0, 22.0 ],
					"style" : "",
					"text" : "zl.slice 1"
				}

			}
, 			{
				"box" : 				{
					"id" : "obj-163",
					"maxclass" : "message",
					"numinlets" : 2,
					"numoutlets" : 1,
					"outlettype" : [ "" ],
					"patching_rect" : [ 996.5, 571.333313, 50.0, 22.0 ],
					"presentation" : 1,
					"presentation_rect" : [ 712.166687, 209.0, 128.0, 22.0 ],
					"style" : "",
					"text" : "r_hand",
					"textjustification" : 1
				}

			}
, 			{
				"box" : 				{
					"id" : "obj-164",
					"maxclass" : "newobj",
					"numinlets" : 2,
					"numoutlets" : 2,
					"outlettype" : [ "", "" ],
					"patching_rect" : [ 1027.5, 537.666626, 57.0, 22.0 ],
					"style" : "",
					"text" : "zl.slice 1"
				}

			}
, 			{
				"box" : 				{
					"id" : "obj-42",
					"maxclass" : "newobj",
					"numinlets" : 2,
					"numoutlets" : 2,
					"outlettype" : [ "", "" ],
					"patching_rect" : [ 932.5, 688.333374, 57.0, 22.0 ],
					"style" : "",
					"text" : "zl.slice 1"
				}

			}
, 			{
				"box" : 				{
					"id" : "obj-165",
					"maxclass" : "newobj",
					"numinlets" : 2,
					"numoutlets" : 2,
					"outlettype" : [ "", "" ],
					"patching_rect" : [ 894.5, 648.0, 57.0, 22.0 ],
					"style" : "",
					"text" : "zl.slice 1"
				}

			}
, 			{
				"box" : 				{
					"id" : "obj-166",
					"maxclass" : "newobj",
					"numinlets" : 2,
					"numoutlets" : 2,
					"outlettype" : [ "", "" ],
					"patching_rect" : [ 856.5, 607.666626, 57.0, 22.0 ],
					"style" : "",
					"text" : "zl.slice 1"
				}

			}
, 			{
				"box" : 				{
					"id" : "obj-37",
					"maxclass" : "newobj",
					"numinlets" : 2,
					"numoutlets" : 2,
					"outlettype" : [ "", "" ],
					"patching_rect" : [ 818.5, 571.333313, 57.0, 22.0 ],
					"style" : "",
					"text" : "zl.slice 1"
				}

			}
, 			{
				"box" : 				{
					"id" : "obj-167",
					"maxclass" : "newobj",
					"numinlets" : 2,
					"numoutlets" : 2,
					"outlettype" : [ "", "" ],
					"patching_rect" : [ 780.5, 537.666626, 57.0, 22.0 ],
					"style" : "",
					"text" : "zl.slice 1"
				}

			}
, 			{
				"box" : 				{
					"id" : "obj-19",
					"maxclass" : "newobj",
					"numinlets" : 2,
					"numoutlets" : 2,
					"outlettype" : [ "", "" ],
					"patching_rect" : [ 976.5, 477.0, 57.0, 22.0 ],
					"style" : "",
					"text" : "zl.slice 5"
				}

			}
, 			{
				"box" : 				{
					"id" : "obj-151",
					"maxclass" : "comment",
					"numinlets" : 1,
					"numoutlets" : 0,
					"patching_rect" : [ 915.833374, 813.0, 150.0, 20.0 ],
					"presentation" : 1,
					"presentation_rect" : [ 712.166687, 1003.0, 150.0, 20.0 ],
					"style" : "",
					"text" : "Kinect Debug"
				}

			}
, 			{
				"box" : 				{
					"id" : "obj-105",
					"maxclass" : "message",
					"numinlets" : 2,
					"numoutlets" : 1,
					"outlettype" : [ "" ],
					"patching_rect" : [ 1268.166748, 936.0, 29.5, 22.0 ],
					"style" : "",
					"text" : "0"
				}

			}
, 			{
				"box" : 				{
					"id" : "obj-106",
					"maxclass" : "message",
					"numinlets" : 2,
					"numoutlets" : 1,
					"outlettype" : [ "" ],
					"patching_rect" : [ 1236.833374, 936.0, 29.5, 22.0 ],
					"style" : "",
					"text" : "1"
				}

			}
, 			{
				"box" : 				{
					"id" : "obj-107",
					"maxclass" : "newobj",
					"numinlets" : 4,
					"numoutlets" : 4,
					"outlettype" : [ "bang", "bang", "bang", "" ],
					"patching_rect" : [ 1236.833374, 890.0, 66.0, 22.0 ],
					"style" : "",
					"text" : "sel 1 0.5 0"
				}

			}
, 			{
				"box" : 				{
					"id" : "obj-110",
					"maxclass" : "newobj",
					"numinlets" : 1,
					"numoutlets" : 0,
					"patching_rect" : [ 915.833374, 1075.333374, 83.0, 22.0 ],
					"presentation" : 1,
					"presentation_rect" : [ 714.166687, 1095.0, 446.000061, 22.0 ],
					"style" : "",
					"text" : "s tophoneudp",
					"textjustification" : 1
				}

			}
, 			{
				"box" : 				{
					"id" : "obj-111",
					"maxclass" : "newobj",
					"numinlets" : 1,
					"numoutlets" : 1,
					"outlettype" : [ "" ],
					"patching_rect" : [ 1236.833374, 988.0, 94.0, 22.0 ],
					"presentation" : 1,
					"presentation_rect" : [ 1050.166748, 1047.0, 110.0, 22.0 ],
					"style" : "",
					"text" : "prepend /1/led3",
					"textjustification" : 1
				}

			}
, 			{
				"box" : 				{
					"id" : "obj-112",
					"maxclass" : "newobj",
					"numinlets" : 1,
					"numoutlets" : 1,
					"outlettype" : [ "" ],
					"patching_rect" : [ 1129.833374, 988.0, 105.0, 22.0 ],
					"presentation" : 1,
					"presentation_rect" : [ 938.166687, 1047.0, 110.0, 22.0 ],
					"style" : "",
					"text" : "prepend /1/fader5",
					"textjustification" : 1
				}

			}
, 			{
				"box" : 				{
					"id" : "obj-113",
					"maxclass" : "newobj",
					"numinlets" : 1,
					"numoutlets" : 1,
					"outlettype" : [ "" ],
					"patching_rect" : [ 1022.833374, 988.0, 105.0, 22.0 ],
					"presentation" : 1,
					"presentation_rect" : [ 826.166687, 1047.0, 110.0, 22.0 ],
					"style" : "",
					"text" : "prepend /1/fader4",
					"textjustification" : 1
				}

			}
, 			{
				"box" : 				{
					"id" : "obj-114",
					"maxclass" : "newobj",
					"numinlets" : 1,
					"numoutlets" : 1,
					"outlettype" : [ "" ],
					"patching_rect" : [ 915.833374, 988.0, 105.0, 22.0 ],
					"presentation" : 1,
					"presentation_rect" : [ 714.166687, 1047.0, 110.0, 22.0 ],
					"style" : "",
					"text" : "prepend /1/fader7",
					"textjustification" : 1
				}

			}
, 			{
				"box" : 				{
					"id" : "obj-115",
					"maxclass" : "newobj",
					"numinlets" : 1,
					"numoutlets" : 1,
					"outlettype" : [ "" ],
					"patching_rect" : [ 1267.833374, 1015.0, 110.0, 22.0 ],
					"presentation" : 1,
					"presentation_rect" : [ 1050.166748, 1071.0, 110.0, 22.0 ],
					"style" : "",
					"text" : "prepend /1/label19",
					"textjustification" : 1
				}

			}
, 			{
				"box" : 				{
					"id" : "obj-70",
					"maxclass" : "newobj",
					"numinlets" : 1,
					"numoutlets" : 1,
					"outlettype" : [ "" ],
					"patching_rect" : [ 1155.833374, 1015.0, 110.0, 22.0 ],
					"presentation" : 1,
					"presentation_rect" : [ 938.166687, 1071.0, 110.0, 22.0 ],
					"style" : "",
					"text" : "prepend /1/label17",
					"textjustification" : 1
				}

			}
, 			{
				"box" : 				{
					"id" : "obj-69",
					"maxclass" : "newobj",
					"numinlets" : 1,
					"numoutlets" : 1,
					"outlettype" : [ "" ],
					"patching_rect" : [ 1043.833374, 1015.0, 110.0, 22.0 ],
					"presentation" : 1,
					"presentation_rect" : [ 826.166687, 1071.0, 110.0, 22.0 ],
					"style" : "",
					"text" : "prepend /1/label16",
					"textjustification" : 1
				}

			}
, 			{
				"box" : 				{
					"id" : "obj-67",
					"maxclass" : "newobj",
					"numinlets" : 1,
					"numoutlets" : 1,
					"outlettype" : [ "" ],
					"patching_rect" : [ 931.833374, 1015.0, 110.0, 22.0 ],
					"presentation" : 1,
					"presentation_rect" : [ 714.166687, 1071.0, 110.0, 22.0 ],
					"style" : "",
					"text" : "prepend /1/label15",
					"textjustification" : 1
				}

			}
, 			{
				"box" : 				{
					"id" : "obj-117",
					"linecount" : 3,
					"maxclass" : "comment",
					"numinlets" : 1,
					"numoutlets" : 0,
					"patching_rect" : [ 1641.833374, 944.0, 93.0, 47.0 ],
					"presentation" : 1,
					"presentation_linecount" : 3,
					"presentation_rect" : [ 1050.166748, 1182.0, 110.0, 47.0 ],
					"style" : "",
					"text" : "0 - can't see\n0.5 - can infer\n1 - sees",
					"textjustification" : 1
				}

			}
, 			{
				"box" : 				{
					"id" : "obj-118",
					"maxclass" : "comment",
					"numinlets" : 1,
					"numoutlets" : 0,
					"patching_rect" : [ 1561.500122, 966.0, 78.0, 20.0 ],
					"presentation" : 1,
					"presentation_rect" : [ 938.166687, 1209.0, 110.0, 20.0 ],
					"style" : "",
					"text" : "non-negative",
					"textjustification" : 1
				}

			}
, 			{
				"box" : 				{
					"id" : "obj-119",
					"maxclass" : "comment",
					"numinlets" : 1,
					"numoutlets" : 0,
					"patching_rect" : [ 1570.500122, 944.0, 60.0, 20.0 ],
					"presentation" : 1,
					"presentation_rect" : [ 938.166687, 1182.0, 110.0, 20.0 ],
					"style" : "",
					"text" : "near-far+",
					"textjustification" : 1
				}

			}
, 			{
				"box" : 				{
					"id" : "obj-120",
					"maxclass" : "comment",
					"numinlets" : 1,
					"numoutlets" : 0,
					"patching_rect" : [ 1500.416626, 944.0, 66.5, 20.0 ],
					"presentation" : 1,
					"presentation_rect" : [ 826.166687, 1182.0, 110.0, 20.0 ],
					"style" : "",
					"text" : "up+-down",
					"textjustification" : 1
				}

			}
, 			{
				"box" : 				{
					"id" : "obj-124",
					"linecount" : 4,
					"maxclass" : "comment",
					"numinlets" : 1,
					"numoutlets" : 0,
					"patching_rect" : [ 1464.833374, 966.0, 61.0, 60.0 ],
					"presentation" : 1,
					"presentation_rect" : [ 714.166687, 1209.0, 222.0, 20.0 ],
					"style" : "",
					"text" : "(orientation facing kinect sensor)",
					"textjustification" : 1
				}

			}
, 			{
				"box" : 				{
					"id" : "obj-125",
					"maxclass" : "comment",
					"numinlets" : 1,
					"numoutlets" : 0,
					"patching_rect" : [ 1432.833374, 944.0, 59.0, 20.0 ],
					"presentation" : 1,
					"presentation_rect" : [ 714.166687, 1182.0, 110.0, 20.0 ],
					"style" : "",
					"text" : "left-right+",
					"textjustification" : 1
				}

			}
, 			{
				"box" : 				{
					"id" : "obj-49",
					"maxclass" : "comment",
					"numinlets" : 1,
					"numoutlets" : 0,
					"patching_rect" : [ 1657.333374, 922.0, 20.0, 20.0 ],
					"presentation" : 1,
					"presentation_rect" : [ 1050.166748, 1156.0, 110.0, 20.0 ],
					"style" : "",
					"text" : "c",
					"textjustification" : 1
				}

			}
, 			{
				"box" : 				{
					"id" : "obj-129",
					"maxclass" : "comment",
					"numinlets" : 1,
					"numoutlets" : 0,
					"patching_rect" : [ 1591.500122, 922.0, 18.0, 20.0 ],
					"presentation" : 1,
					"presentation_rect" : [ 938.166687, 1156.0, 110.0, 20.0 ],
					"style" : "",
					"text" : "z",
					"textjustification" : 1
				}

			}
, 			{
				"box" : 				{
					"id" : "obj-133",
					"maxclass" : "comment",
					"numinlets" : 1,
					"numoutlets" : 0,
					"patching_rect" : [ 1524.666626, 922.0, 18.0, 20.0 ],
					"presentation" : 1,
					"presentation_rect" : [ 826.166687, 1156.0, 110.0, 20.0 ],
					"style" : "",
					"text" : "y",
					"textjustification" : 1
				}

			}
, 			{
				"box" : 				{
					"id" : "obj-135",
					"maxclass" : "comment",
					"numinlets" : 1,
					"numoutlets" : 0,
					"patching_rect" : [ 1454.833374, 922.0, 18.0, 20.0 ],
					"presentation" : 1,
					"presentation_rect" : [ 714.166687, 1156.0, 110.0, 20.0 ],
					"style" : "",
					"text" : "x",
					"textjustification" : 1
				}

			}
, 			{
				"box" : 				{
					"id" : "obj-136",
					"maxclass" : "message",
					"numinlets" : 2,
					"numoutlets" : 1,
					"outlettype" : [ "" ],
					"patching_rect" : [ 1641.833374, 890.0, 51.0, 22.0 ],
					"presentation" : 1,
					"presentation_rect" : [ 1050.166748, 1128.0, 110.0, 22.0 ],
					"style" : "",
					"text" : "0.5",
					"textjustification" : 1
				}

			}
, 			{
				"box" : 				{
					"id" : "obj-39",
					"maxclass" : "message",
					"numinlets" : 2,
					"numoutlets" : 1,
					"outlettype" : [ "" ],
					"patching_rect" : [ 1570.500122, 890.0, 69.0, 22.0 ],
					"presentation" : 1,
					"presentation_rect" : [ 938.166687, 1128.0, 110.0, 22.0 ],
					"style" : "",
					"text" : "1.985123",
					"textjustification" : 1
				}

			}
, 			{
				"box" : 				{
					"id" : "obj-138",
					"maxclass" : "message",
					"numinlets" : 2,
					"numoutlets" : 1,
					"outlettype" : [ "" ],
					"patching_rect" : [ 1499.166626, 890.0, 69.0, 22.0 ],
					"presentation" : 1,
					"presentation_rect" : [ 826.166687, 1128.0, 110.0, 22.0 ],
					"style" : "",
					"text" : "-0.228099",
					"textjustification" : 1
				}

			}
, 			{
				"box" : 				{
					"id" : "obj-139",
					"maxclass" : "message",
					"numinlets" : 2,
					"numoutlets" : 1,
					"outlettype" : [ "" ],
					"patching_rect" : [ 1427.833374, 890.0, 69.0, 22.0 ],
					"presentation" : 1,
					"presentation_rect" : [ 714.166687, 1128.0, 110.0, 22.0 ],
					"style" : "",
					"text" : "1.368954",
					"textjustification" : 1
				}

			}
, 			{
				"box" : 				{
					"id" : "obj-91",
					"maxclass" : "newobj",
					"numinlets" : 0,
					"numoutlets" : 1,
					"outlettype" : [ "" ],
					"patching_rect" : [ 324.333374, 855.0, 95.0, 22.0 ],
					"presentation" : 1,
					"presentation_rect" : [ 712.166687, 787.0, 112.0, 22.0 ],
					"style" : "",
					"text" : "r fromphoneudp"
				}

			}
, 			{
				"box" : 				{
					"id" : "obj-90",
					"maxclass" : "newobj",
					"numinlets" : 0,
					"numoutlets" : 1,
					"outlettype" : [ "" ],
					"patching_rect" : [ 652.333374, 850.0, 95.0, 22.0 ],
					"presentation" : 1,
					"presentation_rect" : [ 851.833313, 787.0, 150.0, 22.0 ],
					"style" : "",
					"text" : "r fromphoneudp"
				}

			}
, 			{
				"box" : 				{
					"id" : "obj-123",
					"maxclass" : "newobj",
					"numinlets" : 1,
					"numoutlets" : 0,
					"patching_rect" : [ 324.333374, 1097.333374, 83.0, 22.0 ],
					"presentation" : 1,
					"presentation_rect" : [ 712.166687, 873.333374, 112.0, 22.0 ],
					"style" : "",
					"text" : "s tophoneudp"
				}

			}
, 			{
				"box" : 				{
					"id" : "obj-92",
					"maxclass" : "message",
					"numinlets" : 2,
					"numoutlets" : 1,
					"outlettype" : [ "" ],
					"patching_rect" : [ 797.333374, 1103.0, 46.0, 35.0 ],
					"presentation" : 1,
					"presentation_rect" : [ 1307.833374, 901.333252, 150.0, 22.0 ],
					"style" : "",
					"text" : "push7"
				}

			}
, 			{
				"box" : 				{
					"id" : "obj-48",
					"maxclass" : "button",
					"numinlets" : 1,
					"numoutlets" : 1,
					"outlettype" : [ "bang" ],
					"patching_rect" : [ 754.833374, 1102.0, 24.0, 24.0 ],
					"presentation" : 1,
					"presentation_rect" : [ 1231.166626, 906.666626, 72.333374, 72.333374 ],
					"style" : ""
				}

			}
, 			{
				"box" : 				{
					"id" : "obj-46",
					"maxclass" : "button",
					"numinlets" : 1,
					"numoutlets" : 1,
					"outlettype" : [ "bang" ],
					"patching_rect" : [ 715.333374, 1102.0, 24.0, 24.0 ],
					"presentation" : 1,
					"presentation_rect" : [ 1155.833374, 906.666626, 72.333374, 72.333374 ],
					"style" : ""
				}

			}
, 			{
				"box" : 				{
					"id" : "obj-93",
					"maxclass" : "newobj",
					"numinlets" : 3,
					"numoutlets" : 3,
					"outlettype" : [ "bang", "bang", "" ],
					"patching_rect" : [ 715.333374, 1062.0, 98.0, 22.0 ],
					"presentation" : 1,
					"presentation_rect" : [ 1155.833374, 882.666626, 150.0, 22.0 ],
					"style" : "",
					"text" : "sel push1 push2"
				}

			}
, 			{
				"box" : 				{
					"id" : "obj-94",
					"maxclass" : "message",
					"numinlets" : 2,
					"numoutlets" : 1,
					"outlettype" : [ "" ],
					"patching_rect" : [ 767.333374, 1033.0, 81.0, 22.0 ],
					"presentation" : 1,
					"presentation_rect" : [ 1307.833374, 858.666626, 150.0, 22.0 ],
					"style" : "",
					"text" : "push7"
				}

			}
, 			{
				"box" : 				{
					"id" : "obj-38",
					"maxclass" : "newobj",
					"numinlets" : 2,
					"numoutlets" : 2,
					"outlettype" : [ "", "" ],
					"patching_rect" : [ 715.333374, 996.0, 48.0, 22.0 ],
					"presentation" : 1,
					"presentation_rect" : [ 1155.833374, 858.666626, 150.0, 22.0 ],
					"style" : "",
					"text" : "route 2"
				}

			}
, 			{
				"box" : 				{
					"id" : "obj-95",
					"maxclass" : "message",
					"numinlets" : 2,
					"numoutlets" : 1,
					"outlettype" : [ "" ],
					"patching_rect" : [ 565.333374, 1033.0, 69.0, 22.0 ],
					"presentation" : 1,
					"presentation_rect" : [ 1003.833313, 858.666626, 150.0, 22.0 ],
					"style" : "",
					"text" : "bang"
				}

			}
, 			{
				"box" : 				{
					"id" : "obj-96",
					"maxclass" : "newobj",
					"numinlets" : 2,
					"numoutlets" : 2,
					"outlettype" : [ "", "" ],
					"patching_rect" : [ 652.333374, 996.0, 48.0, 22.0 ],
					"presentation" : 1,
					"presentation_rect" : [ 851.833313, 858.666626, 150.0, 22.0 ],
					"style" : "",
					"text" : "route 1"
				}

			}
, 			{
				"box" : 				{
					"id" : "obj-97",
					"maxclass" : "message",
					"numinlets" : 2,
					"numoutlets" : 1,
					"outlettype" : [ "" ],
					"patching_rect" : [ 565.333374, 996.0, 69.0, 22.0 ],
					"presentation" : 1,
					"presentation_rect" : [ 1003.833313, 834.666626, 150.0, 22.0 ],
					"style" : "",
					"text" : "2 push7"
				}

			}
, 			{
				"box" : 				{
					"id" : "obj-30",
					"maxclass" : "newobj",
					"numinlets" : 1,
					"numoutlets" : 1,
					"outlettype" : [ "" ],
					"patching_rect" : [ 652.333374, 964.0, 145.0, 22.0 ],
					"presentation" : 1,
					"presentation_rect" : [ 851.833313, 834.666626, 150.0, 22.0 ],
					"style" : "",
					"text" : "fromsymbol @separator /"
				}

			}
, 			{
				"box" : 				{
					"id" : "obj-29",
					"maxclass" : "message",
					"numinlets" : 2,
					"numoutlets" : 1,
					"outlettype" : [ "" ],
					"patching_rect" : [ 565.333374, 930.0, 69.0, 22.0 ],
					"presentation" : 1,
					"presentation_rect" : [ 1003.833313, 810.666626, 150.0, 22.0 ],
					"style" : "",
					"text" : "/2/push7"
				}

			}
, 			{
				"box" : 				{
					"id" : "obj-27",
					"maxclass" : "message",
					"numinlets" : 2,
					"numoutlets" : 1,
					"outlettype" : [ "" ],
					"patching_rect" : [ 701.333374, 930.0, 66.0, 22.0 ],
					"presentation" : 1,
					"presentation_rect" : [ 1155.833374, 810.666626, 150.0, 22.0 ],
					"style" : "",
					"text" : "0."
				}

			}
, 			{
				"box" : 				{
					"id" : "obj-98",
					"maxclass" : "newobj",
					"numinlets" : 2,
					"numoutlets" : 2,
					"outlettype" : [ "", "" ],
					"patching_rect" : [ 652.333374, 894.0, 57.0, 22.0 ],
					"presentation" : 1,
					"presentation_rect" : [ 851.833313, 810.666626, 150.0, 22.0 ],
					"style" : "",
					"text" : "zl.slice 1"
				}

			}
, 			{
				"box" : 				{
					"id" : "obj-99",
					"maxclass" : "message",
					"numinlets" : 2,
					"numoutlets" : 1,
					"outlettype" : [ "" ],
					"patching_rect" : [ 521.333374, 894.0, 113.0, 22.0 ],
					"presentation" : 1,
					"presentation_rect" : [ 1003.833313, 787.0, 150.0, 22.0 ],
					"style" : "",
					"text" : "/2/push7 0."
				}

			}
, 			{
				"box" : 				{
					"id" : "obj-101",
					"maxclass" : "comment",
					"numinlets" : 1,
					"numoutlets" : 0,
					"patching_rect" : [ 601.333374, 813.0, 150.0, 20.0 ],
					"presentation" : 1,
					"presentation_rect" : [ 851.833313, 761.0, 150.0, 20.0 ],
					"style" : "",
					"text" : "Master UDP Debug"
				}

			}
, 			{
				"box" : 				{
					"id" : "obj-15",
					"maxclass" : "newobj",
					"numinlets" : 3,
					"numoutlets" : 3,
					"outlettype" : [ "bang", "bang", "" ],
					"patching_rect" : [ 324.333374, 925.0, 89.0, 22.0 ],
					"style" : "",
					"text" : "sel /1/push6 1."
				}

			}
, 			{
				"box" : 				{
					"id" : "obj-102",
					"maxclass" : "newobj",
					"numinlets" : 2,
					"numoutlets" : 2,
					"outlettype" : [ "", "" ],
					"patching_rect" : [ 324.333374, 894.0, 57.0, 22.0 ],
					"style" : "",
					"text" : "zl.slice 1"
				}

			}
, 			{
				"box" : 				{
					"id" : "obj-5",
					"maxclass" : "comment",
					"numinlets" : 1,
					"numoutlets" : 0,
					"patching_rect" : [ 324.333374, 813.0, 106.0, 20.0 ],
					"presentation" : 1,
					"presentation_rect" : [ 712.166687, 761.0, 112.0, 20.0 ],
					"style" : "",
					"text" : "TouchOSC Debug"
				}

			}
, 			{
				"box" : 				{
					"id" : "obj-6",
					"maxclass" : "button",
					"numinlets" : 1,
					"numoutlets" : 1,
					"outlettype" : [ "bang" ],
					"patching_rect" : [ 324.333374, 958.0, 53.0, 53.0 ],
					"presentation" : 1,
					"presentation_rect" : [ 712.166687, 816.0, 53.0, 53.0 ],
					"style" : ""
				}

			}
, 			{
				"box" : 				{
					"id" : "obj-10",
					"maxclass" : "newobj",
					"numinlets" : 1,
					"numoutlets" : 1,
					"outlettype" : [ "" ],
					"patching_rect" : [ 324.333374, 1057.0, 94.0, 22.0 ],
					"style" : "",
					"text" : "prepend /1/led1"
				}

			}
, 			{
				"box" : 				{
					"id" : "obj-103",
					"maxclass" : "toggle",
					"numinlets" : 1,
					"numoutlets" : 1,
					"outlettype" : [ "int" ],
					"parameter_enable" : 0,
					"patching_rect" : [ 324.333374, 1021.0, 24.0, 24.0 ],
					"presentation" : 1,
					"presentation_rect" : [ 771.166687, 816.0, 53.0, 53.0 ],
					"style" : ""
				}

			}
, 			{
				"box" : 				{
					"id" : "obj-62",
					"maxclass" : "newobj",
					"numinlets" : 1,
					"numoutlets" : 1,
					"outlettype" : [ "" ],
					"patching_rect" : [ 608.0, 443.666656, 72.0, 22.0 ],
					"style" : "",
					"text" : "loadmess 0"
				}

			}
, 			{
				"box" : 				{
					"id" : "obj-61",
					"maxclass" : "newobj",
					"numinlets" : 1,
					"numoutlets" : 1,
					"outlettype" : [ "" ],
					"patching_rect" : [ 432.0, 443.666656, 72.0, 22.0 ],
					"style" : "",
					"text" : "loadmess 0"
				}

			}
, 			{
				"box" : 				{
					"id" : "obj-60",
					"maxclass" : "gain~",
					"numinlets" : 1,
					"numoutlets" : 2,
					"outlettype" : [ "signal", "int" ],
					"parameter_enable" : 0,
					"patching_rect" : [ 390.333374, 443.666656, 24.0, 114.333344 ],
					"presentation" : 1,
					"presentation_rect" : [ 219.5, 360.333252, 24.0, 140.0 ],
					"style" : ""
				}

			}
, 			{
				"box" : 				{
					"id" : "obj-59",
					"maxclass" : "gain~",
					"numinlets" : 1,
					"numoutlets" : 2,
					"outlettype" : [ "signal", "int" ],
					"parameter_enable" : 0,
					"patching_rect" : [ 560.333374, 443.666656, 24.0, 114.333344 ],
					"presentation" : 1,
					"presentation_rect" : [ 495.5, 351.333252, 24.0, 140.0 ],
					"style" : ""
				}

			}
, 			{
				"box" : 				{
					"id" : "obj-57",
					"linecount" : 2,
					"maxclass" : "newobj",
					"numinlets" : 1,
					"numoutlets" : 1,
					"outlettype" : [ "" ],
					"patching_rect" : [ 240.0, 474.166656, 65.0, 35.0 ],
					"style" : "",
					"text" : "loadmess 64"
				}

			}
, 			{
				"box" : 				{
					"id" : "obj-58",
					"maxclass" : "slider",
					"numinlets" : 1,
					"numoutlets" : 1,
					"outlettype" : [ "" ],
					"parameter_enable" : 0,
					"patching_rect" : [ 240.0, 558.0, 20.0, 140.0 ],
					"presentation" : 1,
					"presentation_rect" : [ 551.5, 351.333252, 20.0, 140.0 ],
					"style" : ""
				}

			}
, 			{
				"box" : 				{
					"id" : "obj-54",
					"linecount" : 2,
					"maxclass" : "newobj",
					"numinlets" : 1,
					"numoutlets" : 1,
					"outlettype" : [ "" ],
					"patching_rect" : [ 171.75, 474.166656, 66.25, 35.0 ],
					"style" : "",
					"text" : "loadmess 64"
				}

			}
, 			{
				"box" : 				{
					"id" : "obj-56",
					"maxclass" : "slider",
					"numinlets" : 1,
					"numoutlets" : 1,
					"outlettype" : [ "" ],
					"parameter_enable" : 0,
					"patching_rect" : [ 171.75, 558.0, 20.0, 140.0 ],
					"presentation" : 1,
					"presentation_rect" : [ 339.5, 411.333252, 140.0, 20.0 ],
					"style" : ""
				}

			}
, 			{
				"box" : 				{
					"id" : "obj-51",
					"linecount" : 2,
					"maxclass" : "newobj",
					"numinlets" : 1,
					"numoutlets" : 1,
					"outlettype" : [ "" ],
					"patching_rect" : [ 99.0, 474.166656, 65.0, 35.0 ],
					"style" : "",
					"text" : "loadmess 64"
				}

			}
, 			{
				"box" : 				{
					"id" : "obj-52",
					"maxclass" : "slider",
					"numinlets" : 1,
					"numoutlets" : 1,
					"outlettype" : [ "" ],
					"parameter_enable" : 0,
					"patching_rect" : [ 99.0, 558.0, 20.0, 140.0 ],
					"presentation" : 1,
					"presentation_rect" : [ 275.5, 360.333252, 20.0, 140.0 ],
					"style" : ""
				}

			}
, 			{
				"box" : 				{
					"id" : "obj-50",
					"linecount" : 2,
					"maxclass" : "newobj",
					"numinlets" : 1,
					"numoutlets" : 1,
					"outlettype" : [ "" ],
					"patching_rect" : [ 33.0, 474.166656, 65.0, 35.0 ],
					"style" : "",
					"text" : "loadmess 64"
				}

			}
, 			{
				"box" : 				{
					"id" : "obj-47",
					"maxclass" : "slider",
					"numinlets" : 1,
					"numoutlets" : 1,
					"outlettype" : [ "" ],
					"parameter_enable" : 0,
					"patching_rect" : [ 37.5, 558.0, 20.0, 140.0 ],
					"presentation" : 1,
					"presentation_rect" : [ 63.5, 420.333252, 140.0, 20.0 ],
					"style" : ""
				}

			}
, 			{
				"box" : 				{
					"id" : "obj-45",
					"linecount" : 2,
					"maxclass" : "newobj",
					"numinlets" : 6,
					"numoutlets" : 1,
					"outlettype" : [ "" ],
					"patching_rect" : [ 240.0, 515.666626, 65.0, 35.0 ],
					"style" : "",
					"text" : "scale -1. 1. 0 127"
				}

			}
, 			{
				"box" : 				{
					"id" : "obj-43",
					"linecount" : 2,
					"maxclass" : "newobj",
					"numinlets" : 6,
					"numoutlets" : 1,
					"outlettype" : [ "" ],
					"patching_rect" : [ 171.75, 515.666626, 59.25, 35.0 ],
					"style" : "",
					"text" : "scale -1. 1. 0 127"
				}

			}
, 			{
				"box" : 				{
					"id" : "obj-41",
					"linecount" : 2,
					"maxclass" : "newobj",
					"numinlets" : 6,
					"numoutlets" : 1,
					"outlettype" : [ "" ],
					"patching_rect" : [ 99.0, 515.666626, 65.0, 35.0 ],
					"style" : "",
					"text" : "scale -1. 1. 127 0"
				}

			}
, 			{
				"box" : 				{
					"id" : "obj-40",
					"linecount" : 2,
					"maxclass" : "newobj",
					"numinlets" : 6,
					"numoutlets" : 1,
					"outlettype" : [ "" ],
					"patching_rect" : [ 33.0, 515.666626, 65.0, 35.0 ],
					"style" : "",
					"text" : "scale -1. 1. 0 127"
				}

			}
, 			{
				"box" : 				{
					"id" : "obj-32",
					"maxclass" : "number",
					"numinlets" : 1,
					"numoutlets" : 2,
					"outlettype" : [ "", "bang" ],
					"parameter_enable" : 0,
					"patching_rect" : [ 565.333374, 572.666626, 50.0, 22.0 ],
					"style" : ""
				}

			}
, 			{
				"box" : 				{
					"id" : "obj-33",
					"maxclass" : "newobj",
					"numinlets" : 1,
					"numoutlets" : 0,
					"patching_rect" : [ 565.333374, 611.666626, 49.0, 22.0 ],
					"style" : "",
					"text" : "s gain2"
				}

			}
, 			{
				"box" : 				{
					"id" : "obj-34",
					"maxclass" : "newobj",
					"numinlets" : 6,
					"numoutlets" : 1,
					"outlettype" : [ "" ],
					"patching_rect" : [ 509.333374, 651.166626, 99.0, 22.0 ],
					"style" : "",
					"text" : "scale 0 128 0. 1."
				}

			}
, 			{
				"box" : 				{
					"id" : "obj-35",
					"maxclass" : "newobj",
					"numinlets" : 1,
					"numoutlets" : 0,
					"patching_rect" : [ 509.333374, 729.666626, 83.0, 22.0 ],
					"presentation" : 1,
					"presentation_rect" : [ 466.0, 534.0, 83.0, 22.0 ],
					"style" : "",
					"text" : "s tophoneudp",
					"textjustification" : 1
				}

			}
, 			{
				"box" : 				{
					"id" : "obj-36",
					"maxclass" : "newobj",
					"numinlets" : 1,
					"numoutlets" : 1,
					"outlettype" : [ "" ],
					"patching_rect" : [ 509.333374, 691.666626, 105.0, 22.0 ],
					"presentation" : 1,
					"presentation_linecount" : 2,
					"presentation_rect" : [ 479.625, 497.0, 56.0, 35.0 ],
					"style" : "",
					"text" : "prepend /2/fader9",
					"textjustification" : 1
				}

			}
, 			{
				"box" : 				{
					"id" : "obj-31",
					"maxclass" : "number",
					"numinlets" : 1,
					"numoutlets" : 2,
					"outlettype" : [ "", "bang" ],
					"parameter_enable" : 0,
					"patching_rect" : [ 395.333374, 572.666626, 50.0, 22.0 ],
					"style" : ""
				}

			}
, 			{
				"box" : 				{
					"id" : "obj-132",
					"maxclass" : "newobj",
					"numinlets" : 1,
					"numoutlets" : 0,
					"patching_rect" : [ 953.666626, 309.333313, 95.0, 22.0 ],
					"presentation" : 1,
					"presentation_rect" : [ 906.833313, 646.0, 95.0, 22.0 ],
					"style" : "",
					"text" : "s fromkinectudp",
					"textjustification" : 1
				}

			}
, 			{
				"box" : 				{
					"id" : "obj-131",
					"maxclass" : "newobj",
					"numinlets" : 1,
					"numoutlets" : 1,
					"outlettype" : [ "" ],
					"patching_rect" : [ 953.666626, 276.0, 99.0, 22.0 ],
					"presentation" : 1,
					"presentation_rect" : [ 906.833313, 612.666687, 99.0, 22.0 ],
					"style" : "",
					"text" : "udpreceive 6000",
					"textjustification" : 1
				}

			}
, 			{
				"box" : 				{
					"id" : "obj-130",
					"maxclass" : "newobj",
					"numinlets" : 0,
					"numoutlets" : 1,
					"outlettype" : [ "" ],
					"patching_rect" : [ 953.666626, 345.333313, 79.0, 22.0 ],
					"presentation" : 1,
					"presentation_rect" : [ 906.833313, 682.0, 79.0, 22.0 ],
					"style" : "",
					"text" : "r tokinectudp",
					"textjustification" : 1
				}

			}
, 			{
				"box" : 				{
					"id" : "obj-127",
					"maxclass" : "newobj",
					"numinlets" : 1,
					"numoutlets" : 1,
					"outlettype" : [ "" ],
					"patching_rect" : [ 759.0, 276.0, 99.0, 22.0 ],
					"presentation" : 1,
					"presentation_rect" : [ 712.166687, 612.666687, 99.0, 22.0 ],
					"style" : "",
					"text" : "udpreceive 8000",
					"textjustification" : 1
				}

			}
, 			{
				"box" : 				{
					"id" : "obj-126",
					"maxclass" : "newobj",
					"numinlets" : 1,
					"numoutlets" : 0,
					"patching_rect" : [ 759.0, 309.333313, 97.0, 22.0 ],
					"presentation" : 1,
					"presentation_rect" : [ 712.166687, 646.0, 97.0, 22.0 ],
					"style" : "",
					"text" : "s fromphoneudp",
					"textjustification" : 1
				}

			}
, 			{
				"box" : 				{
					"id" : "obj-122",
					"maxclass" : "newobj",
					"numinlets" : 1,
					"numoutlets" : 0,
					"patching_rect" : [ 759.0, 381.333313, 160.0, 22.0 ],
					"presentation" : 1,
					"presentation_rect" : [ 712.166687, 718.0, 160.0, 22.0 ],
					"style" : "",
					"text" : "udpsend 10.7.158.100 9000",
					"textjustification" : 1
				}

			}
, 			{
				"box" : 				{
					"id" : "obj-121",
					"maxclass" : "newobj",
					"numinlets" : 0,
					"numoutlets" : 1,
					"outlettype" : [ "" ],
					"patching_rect" : [ 759.0, 345.333313, 81.0, 22.0 ],
					"presentation" : 1,
					"presentation_rect" : [ 712.166687, 682.0, 81.0, 22.0 ],
					"style" : "",
					"text" : "r tophoneudp",
					"textjustification" : 1
				}

			}
, 			{
				"box" : 				{
					"id" : "obj-116",
					"maxclass" : "newobj",
					"numinlets" : 1,
					"numoutlets" : 0,
					"patching_rect" : [ 953.666626, 381.333313, 160.0, 22.0 ],
					"presentation" : 1,
					"presentation_rect" : [ 906.833313, 718.0, 160.0, 22.0 ],
					"style" : "",
					"text" : "udpsend 10.7.158.101 7000",
					"textjustification" : 1
				}

			}
, 			{
				"box" : 				{
					"id" : "obj-24",
					"maxclass" : "newobj",
					"numinlets" : 1,
					"numoutlets" : 0,
					"patching_rect" : [ 395.333374, 611.666626, 49.0, 22.0 ],
					"style" : "",
					"text" : "s gain1"
				}

			}
, 			{
				"box" : 				{
					"id" : "obj-22",
					"maxclass" : "newobj",
					"numinlets" : 6,
					"numoutlets" : 1,
					"outlettype" : [ "" ],
					"patching_rect" : [ 339.333374, 651.166626, 99.0, 22.0 ],
					"style" : "",
					"text" : "scale 0 128 0. 1."
				}

			}
, 			{
				"box" : 				{
					"id" : "obj-21",
					"maxclass" : "newobj",
					"numinlets" : 1,
					"numoutlets" : 0,
					"patching_rect" : [ 339.333374, 729.666626, 83.0, 22.0 ],
					"presentation" : 1,
					"presentation_rect" : [ 191.0, 543.0, 81.0, 22.0 ],
					"style" : "",
					"text" : "s tophoneudp",
					"textjustification" : 1
				}

			}
, 			{
				"box" : 				{
					"id" : "obj-20",
					"maxclass" : "newobj",
					"numinlets" : 1,
					"numoutlets" : 1,
					"outlettype" : [ "" ],
					"patching_rect" : [ 339.333374, 691.666626, 105.0, 22.0 ],
					"presentation" : 1,
					"presentation_linecount" : 2,
					"presentation_rect" : [ 203.0, 506.0, 57.0, 35.0 ],
					"style" : "",
					"text" : "prepend /2/fader8",
					"textjustification" : 1
				}

			}
, 			{
				"box" : 				{
					"id" : "obj-14",
					"maxclass" : "newobj",
					"numinlets" : 0,
					"numoutlets" : 1,
					"outlettype" : [ "" ],
					"patching_rect" : [ 509.333374, 289.666656, 28.0, 22.0 ],
					"presentation" : 1,
					"presentation_rect" : [ 481.5, 220.0, 52.0, 22.0 ],
					"style" : "",
					"text" : "r ry",
					"textjustification" : 1
				}

			}
, 			{
				"box" : 				{
					"id" : "obj-7",
					"maxclass" : "newobj",
					"numinlets" : 0,
					"numoutlets" : 1,
					"outlettype" : [ "" ],
					"patching_rect" : [ 339.333374, 289.666656, 28.0, 22.0 ],
					"presentation" : 1,
					"presentation_rect" : [ 205.5, 229.0, 52.0, 22.0 ],
					"style" : "",
					"text" : "r ry",
					"textjustification" : 1
				}

			}
, 			{
				"box" : 				{
					"id" : "obj-2",
					"maxclass" : "newobj",
					"numinlets" : 1,
					"numoutlets" : 0,
					"patching_rect" : [ 608.0, 242.0, 52.0, 22.0 ],
					"presentation" : 1,
					"presentation_rect" : [ 610.166687, 220.0, 62.0, 22.0 ],
					"style" : "",
					"text" : "s space",
					"textjustification" : 1
				}

			}
, 			{
				"box" : 				{
					"id" : "obj-1",
					"maxclass" : "newobj",
					"numinlets" : 2,
					"numoutlets" : 2,
					"outlettype" : [ "bang", "" ],
					"patching_rect" : [ 608.0, 205.0, 62.0, 22.0 ],
					"presentation" : 1,
					"presentation_rect" : [ 610.166687, 196.0, 62.0, 22.0 ],
					"style" : "",
					"text" : "sel push7",
					"textjustification" : 1
				}

			}
, 			{
				"box" : 				{
					"id" : "obj-174",
					"maxclass" : "newobj",
					"numinlets" : 6,
					"numoutlets" : 1,
					"outlettype" : [ "" ],
					"patching_rect" : [ 509.333374, 403.499939, 116.0, 22.0 ],
					"presentation" : 1,
					"presentation_linecount" : 3,
					"presentation_rect" : [ 481.5, 299.666626, 53.0, 49.0 ],
					"style" : "",
					"text" : "scale -1.5 0.5 0 128"
				}

			}
, 			{
				"box" : 				{
					"id" : "obj-173",
					"maxclass" : "newobj",
					"numinlets" : 6,
					"numoutlets" : 1,
					"outlettype" : [ "" ],
					"patching_rect" : [ 339.333374, 403.499939, 116.0, 22.0 ],
					"presentation" : 1,
					"presentation_linecount" : 3,
					"presentation_rect" : [ 205.5, 309.333282, 53.0, 49.0 ],
					"style" : "",
					"text" : "scale -1.5 0.5 0 128"
				}

			}
, 			{
				"box" : 				{
					"id" : "obj-172",
					"maxclass" : "newobj",
					"numinlets" : 2,
					"numoutlets" : 2,
					"outlettype" : [ "bang", "" ],
					"patching_rect" : [ 151.75, 208.0, 69.0, 22.0 ],
					"presentation" : 1,
					"presentation_rect" : [ 339.5, 196.0, 248.0, 22.0 ],
					"style" : "",
					"text" : "sel toggle2",
					"textjustification" : 1
				}

			}
, 			{
				"box" : 				{
					"id" : "obj-162",
					"maxclass" : "gswitch2",
					"numinlets" : 2,
					"numoutlets" : 2,
					"outlettype" : [ "", "" ],
					"parameter_enable" : 0,
					"patching_rect" : [ 489.333374, 346.666656, 39.0, 32.0 ],
					"presentation" : 1,
					"presentation_rect" : [ 481.5, 245.666626, 52.0, 52.0 ],
					"style" : ""
				}

			}
, 			{
				"box" : 				{
					"id" : "obj-154",
					"maxclass" : "gswitch2",
					"numinlets" : 2,
					"numoutlets" : 2,
					"outlettype" : [ "", "" ],
					"parameter_enable" : 0,
					"patching_rect" : [ 319.333374, 346.666656, 39.0, 32.0 ],
					"presentation" : 1,
					"presentation_rect" : [ 205.5, 254.666656, 52.0, 52.0 ],
					"style" : ""
				}

			}
, 			{
				"box" : 				{
					"id" : "obj-143",
					"maxclass" : "gswitch2",
					"numinlets" : 2,
					"numoutlets" : 2,
					"outlettype" : [ "", "" ],
					"parameter_enable" : 0,
					"patching_rect" : [ 220.0, 328.0, 39.0, 32.0 ],
					"presentation" : 1,
					"presentation_rect" : [ 535.5, 245.666626, 52.0, 52.0 ],
					"style" : ""
				}

			}
, 			{
				"box" : 				{
					"id" : "obj-144",
					"maxclass" : "gswitch2",
					"numinlets" : 2,
					"numoutlets" : 2,
					"outlettype" : [ "", "" ],
					"parameter_enable" : 0,
					"patching_rect" : [ 151.75, 328.0, 39.0, 32.0 ],
					"presentation" : 1,
					"presentation_rect" : [ 383.0, 245.666626, 53.0, 52.0 ],
					"style" : ""
				}

			}
, 			{
				"box" : 				{
					"id" : "obj-145",
					"maxclass" : "newobj",
					"numinlets" : 0,
					"numoutlets" : 1,
					"outlettype" : [ "" ],
					"patching_rect" : [ 240.0, 289.666656, 28.0, 22.0 ],
					"presentation" : 1,
					"presentation_rect" : [ 535.5, 220.0, 52.0, 22.0 ],
					"style" : "",
					"text" : "r rz",
					"textjustification" : 1
				}

			}
, 			{
				"box" : 				{
					"id" : "obj-146",
					"maxclass" : "newobj",
					"numinlets" : 0,
					"numoutlets" : 1,
					"outlettype" : [ "" ],
					"patching_rect" : [ 171.75, 289.666656, 28.0, 22.0 ],
					"presentation" : 1,
					"presentation_rect" : [ 339.5, 220.0, 140.0, 22.0 ],
					"style" : "",
					"text" : "r rx",
					"textjustification" : 1
				}

			}
, 			{
				"box" : 				{
					"id" : "obj-147",
					"linecount" : 3,
					"maxclass" : "newobj",
					"numinlets" : 6,
					"numoutlets" : 1,
					"outlettype" : [ "" ],
					"patching_rect" : [ 240.0, 376.333282, 52.0, 49.0 ],
					"presentation" : 1,
					"presentation_linecount" : 3,
					"presentation_rect" : [ 535.5, 300.333252, 52.0, 49.0 ],
					"style" : "",
					"text" : "scale 0.65. 4. 1. -1."
				}

			}
, 			{
				"box" : 				{
					"id" : "obj-148",
					"linecount" : 3,
					"maxclass" : "newobj",
					"numinlets" : 6,
					"numoutlets" : 1,
					"outlettype" : [ "" ],
					"patching_rect" : [ 171.75, 376.333282, 53.0, 49.0 ],
					"presentation" : 1,
					"presentation_rect" : [ 339.5, 300.333252, 140.0, 22.0 ],
					"style" : "",
					"text" : "scale -2. 1.85 -1. 1.",
					"textjustification" : 1
				}

			}
, 			{
				"box" : 				{
					"format" : 6,
					"id" : "obj-149",
					"maxclass" : "flonum",
					"maximum" : 2.0,
					"minimum" : -2.0,
					"numinlets" : 1,
					"numoutlets" : 2,
					"outlettype" : [ "", "bang" ],
					"parameter_enable" : 0,
					"patching_rect" : [ 240.0, 443.666656, 50.0, 22.0 ],
					"style" : ""
				}

			}
, 			{
				"box" : 				{
					"format" : 6,
					"id" : "obj-150",
					"maxclass" : "flonum",
					"maximum" : 2.0,
					"minimum" : -2.0,
					"numinlets" : 1,
					"numoutlets" : 2,
					"outlettype" : [ "", "bang" ],
					"parameter_enable" : 0,
					"patching_rect" : [ 171.75, 443.666656, 50.0, 22.0 ],
					"style" : ""
				}

			}
, 			{
				"box" : 				{
					"id" : "obj-141",
					"linecount" : 2,
					"maxclass" : "newobj",
					"numinlets" : 5,
					"numoutlets" : 1,
					"outlettype" : [ "" ],
					"patching_rect" : [ 151.75, 774.0, 101.25, 35.0 ],
					"style" : "",
					"text" : "pak source 2 cartesian 0. 0."
				}

			}
, 			{
				"box" : 				{
					"id" : "obj-137",
					"maxclass" : "gswitch2",
					"numinlets" : 2,
					"numoutlets" : 2,
					"outlettype" : [ "", "" ],
					"parameter_enable" : 0,
					"patching_rect" : [ 79.0, 328.0, 39.0, 32.0 ],
					"presentation" : 1,
					"presentation_rect" : [ 259.5, 254.666656, 52.0, 52.0 ],
					"style" : ""
				}

			}
, 			{
				"box" : 				{
					"id" : "obj-134",
					"maxclass" : "gswitch2",
					"numinlets" : 2,
					"numoutlets" : 2,
					"outlettype" : [ "", "" ],
					"parameter_enable" : 0,
					"patching_rect" : [ 13.0, 328.0, 39.0, 32.0 ],
					"presentation" : 1,
					"presentation_rect" : [ 108.0, 254.666656, 51.0, 52.0 ],
					"style" : ""
				}

			}
, 			{
				"box" : 				{
					"id" : "obj-88",
					"maxclass" : "newobj",
					"numinlets" : 0,
					"numoutlets" : 1,
					"outlettype" : [ "" ],
					"patching_rect" : [ 99.0, 289.666656, 28.0, 22.0 ],
					"presentation" : 1,
					"presentation_rect" : [ 259.5, 229.0, 52.0, 22.0 ],
					"style" : "",
					"text" : "r rz",
					"textjustification" : 1
				}

			}
, 			{
				"box" : 				{
					"id" : "obj-87",
					"maxclass" : "newobj",
					"numinlets" : 0,
					"numoutlets" : 1,
					"outlettype" : [ "" ],
					"patching_rect" : [ 33.0, 289.666656, 28.0, 22.0 ],
					"presentation" : 1,
					"presentation_rect" : [ 63.5, 229.0, 140.0, 22.0 ],
					"style" : "",
					"text" : "r rx",
					"textjustification" : 1
				}

			}
, 			{
				"box" : 				{
					"id" : "obj-86",
					"maxclass" : "newobj",
					"numinlets" : 0,
					"numoutlets" : 1,
					"outlettype" : [ "" ],
					"patching_rect" : [ 1023.833374, 845.0, 28.0, 22.0 ],
					"presentation" : 1,
					"presentation_rect" : [ 1050.166748, 1023.0, 110.0, 22.0 ],
					"style" : "",
					"text" : "r rc",
					"textjustification" : 1
				}

			}
, 			{
				"box" : 				{
					"id" : "obj-85",
					"maxclass" : "newobj",
					"numinlets" : 0,
					"numoutlets" : 1,
					"outlettype" : [ "" ],
					"patching_rect" : [ 987.833374, 845.0, 28.0, 22.0 ],
					"presentation" : 1,
					"presentation_rect" : [ 938.166687, 1023.0, 110.0, 22.0 ],
					"style" : "",
					"text" : "r rz",
					"textjustification" : 1
				}

			}
, 			{
				"box" : 				{
					"id" : "obj-84",
					"maxclass" : "newobj",
					"numinlets" : 0,
					"numoutlets" : 1,
					"outlettype" : [ "" ],
					"patching_rect" : [ 951.833374, 845.0, 28.0, 22.0 ],
					"presentation" : 1,
					"presentation_rect" : [ 826.166687, 1023.0, 110.0, 22.0 ],
					"style" : "",
					"text" : "r ry",
					"textjustification" : 1
				}

			}
, 			{
				"box" : 				{
					"id" : "obj-83",
					"maxclass" : "newobj",
					"numinlets" : 0,
					"numoutlets" : 1,
					"outlettype" : [ "" ],
					"patching_rect" : [ 915.833374, 845.0, 28.0, 22.0 ],
					"presentation" : 1,
					"presentation_rect" : [ 714.166687, 1023.0, 110.0, 22.0 ],
					"style" : "",
					"text" : "r rx",
					"textjustification" : 1
				}

			}
, 			{
				"box" : 				{
					"id" : "obj-82",
					"maxclass" : "newobj",
					"numinlets" : 1,
					"numoutlets" : 0,
					"patching_rect" : [ 1179.5, 720.833252, 30.0, 22.0 ],
					"presentation" : 1,
					"presentation_rect" : [ 810.166687, 233.0, 30.0, 22.0 ],
					"style" : "",
					"text" : "s rc",
					"textjustification" : 1
				}

			}
, 			{
				"box" : 				{
					"id" : "obj-81",
					"maxclass" : "newobj",
					"numinlets" : 1,
					"numoutlets" : 0,
					"patching_rect" : [ 932.5, 723.666626, 28.0, 22.0 ],
					"presentation" : 1,
					"presentation_rect" : [ 810.166687, 184.833252, 30.0, 22.0 ],
					"style" : "",
					"text" : "s lc",
					"textjustification" : 1
				}

			}
, 			{
				"box" : 				{
					"id" : "obj-78",
					"maxclass" : "newobj",
					"numinlets" : 1,
					"numoutlets" : 0,
					"patching_rect" : [ 894.5, 688.333374, 28.0, 22.0 ],
					"presentation" : 1,
					"presentation_rect" : [ 778.166687, 184.833252, 30.0, 22.0 ],
					"style" : "",
					"text" : "s lz",
					"textjustification" : 1
				}

			}
, 			{
				"box" : 				{
					"id" : "obj-79",
					"maxclass" : "newobj",
					"numinlets" : 1,
					"numoutlets" : 0,
					"patching_rect" : [ 856.5, 648.0, 28.0, 22.0 ],
					"presentation" : 1,
					"presentation_rect" : [ 745.166687, 184.833252, 31.0, 22.0 ],
					"style" : "",
					"text" : "s ly",
					"textjustification" : 1
				}

			}
, 			{
				"box" : 				{
					"id" : "obj-80",
					"maxclass" : "newobj",
					"numinlets" : 1,
					"numoutlets" : 0,
					"patching_rect" : [ 818.5, 607.666626, 28.0, 22.0 ],
					"presentation" : 1,
					"presentation_rect" : [ 712.166687, 184.833252, 31.0, 22.0 ],
					"style" : "",
					"text" : "s lx",
					"textjustification" : 1
				}

			}
, 			{
				"box" : 				{
					"id" : "obj-77",
					"maxclass" : "newobj",
					"numinlets" : 1,
					"numoutlets" : 0,
					"patching_rect" : [ 1141.5, 688.333374, 30.0, 22.0 ],
					"presentation" : 1,
					"presentation_rect" : [ 778.166687, 233.0, 30.0, 22.0 ],
					"style" : "",
					"text" : "s rz",
					"textjustification" : 1
				}

			}
, 			{
				"box" : 				{
					"id" : "obj-75",
					"maxclass" : "newobj",
					"numinlets" : 1,
					"numoutlets" : 0,
					"patching_rect" : [ 1103.5, 648.0, 30.0, 22.0 ],
					"presentation" : 1,
					"presentation_rect" : [ 745.166687, 233.0, 30.0, 22.0 ],
					"style" : "",
					"text" : "s ry",
					"textjustification" : 1
				}

			}
, 			{
				"box" : 				{
					"id" : "obj-74",
					"maxclass" : "newobj",
					"numinlets" : 1,
					"numoutlets" : 0,
					"patching_rect" : [ 1065.5, 607.666626, 30.0, 22.0 ],
					"presentation" : 1,
					"presentation_rect" : [ 712.166687, 233.0, 30.0, 22.0 ],
					"style" : "",
					"text" : "s rx",
					"textjustification" : 1
				}

			}
, 			{
				"box" : 				{
					"id" : "obj-73",
					"linecount" : 3,
					"maxclass" : "newobj",
					"numinlets" : 6,
					"numoutlets" : 1,
					"outlettype" : [ "" ],
					"patching_rect" : [ 99.0, 376.333282, 52.0, 49.0 ],
					"presentation" : 1,
					"presentation_linecount" : 3,
					"presentation_rect" : [ 259.5, 309.333282, 52.0, 49.0 ],
					"style" : "",
					"text" : "scale 0.65. 4. 1. -1."
				}

			}
, 			{
				"box" : 				{
					"id" : "obj-72",
					"linecount" : 3,
					"maxclass" : "newobj",
					"numinlets" : 6,
					"numoutlets" : 1,
					"outlettype" : [ "" ],
					"patching_rect" : [ 33.0, 376.333282, 53.0, 49.0 ],
					"presentation" : 1,
					"presentation_rect" : [ 63.5, 309.333282, 140.0, 22.0 ],
					"style" : "",
					"text" : "scale -2. 1.85 -1. 1.",
					"textjustification" : 1
				}

			}
, 			{
				"box" : 				{
					"id" : "obj-9",
					"maxclass" : "newobj",
					"numinlets" : 1,
					"numoutlets" : 0,
					"patching_rect" : [ 33.0, 1064.0, 71.0, 22.0 ],
					"style" : "",
					"text" : "s sourcelist"
				}

			}
, 			{
				"box" : 				{
					"id" : "obj-140",
					"maxclass" : "newobj",
					"numinlets" : 0,
					"numoutlets" : 1,
					"outlettype" : [ "" ],
					"patching_rect" : [ 976.5, 434.0, 93.0, 22.0 ],
					"presentation" : 1,
					"presentation_rect" : [ 712.166687, 137.0, 128.0, 22.0 ],
					"style" : "",
					"text" : "r fromkinectudp",
					"textjustification" : 1
				}

			}
, 			{
				"box" : 				{
					"id" : "obj-128",
					"maxclass" : "newobj",
					"numinlets" : 0,
					"numoutlets" : 1,
					"outlettype" : [ "" ],
					"patching_rect" : [ 128.0, 11.0, 95.0, 22.0 ],
					"presentation" : 1,
					"presentation_rect" : [ 55.0, 137.0, 95.0, 22.0 ],
					"style" : "",
					"text" : "r fromphoneudp",
					"textjustification" : 1
				}

			}
, 			{
				"box" : 				{
					"id" : "obj-100",
					"maxclass" : "newobj",
					"numinlets" : 1,
					"numoutlets" : 0,
					"patching_rect" : [ 166.0, 80.000008, 57.0, 22.0 ],
					"style" : "",
					"text" : "s arg-val"
				}

			}
, 			{
				"box" : 				{
					"color" : [ 1.0, 1.0, 1.0, 1.0 ],
					"fontface" : 0,
					"fontname" : "Arial",
					"fontsize" : 12.0,
					"id" : "obj-53",
					"map_saved_state" : [ "_source_preset_data_", "source", 1, 1, 0.074259, -0.774394, 0.0, 0, 0.2, 0.2, 0.2, 1.0, "", "source", 2, 1, -0.026546, 0.553891, 0.0, 0, 0.2, 0.2, 0.2, 1.0, "", "source", 3, 0, 0.0, 0.0, 0.0, 0, 0.0, 0.0, 0.0, 1.0, "", "source", 4, 0, 0.0, 0.0, 0.0, 0, 0.0, 0.0, 0.0, 1.0, "", "source", 5, 0, 0.0, 0.0, 0.0, 0, 0.0, 0.0, 0.0, 1.0, "", "source", 6, 0, 0.0, 0.0, 0.0, 0, 0.0, 0.0, 0.0, 1.0, "", "source", 7, 0, 0.0, 0.0, 0.0, 0, 0.0, 0.0, 0.0, 1.0, "", "source", 8, 0, 0.0, 0.0, 0.0, 0, 0.0, 0.0, 0.0, 1.0, "", "source", 9, 0, 0.0, 0.0, 0.0, 0, 0.0, 0.0, 0.0, 1.0, "", "source", 10, 0, 0.0, 0.0, 0.0, 0, 0.0, 0.0, 0.0, 1.0, "", "source", 11, 0, 0.0, 0.0, 0.0, 0, 0.0, 0.0, 0.0, 1.0, "", "source", 12, 0, 0.0, 0.0, 0.0, 0, 0.0, 0.0, 0.0, 1.0, "", "source", 13, 0, 0.0, 0.0, 0.0, 0, 0.0, 0.0, 0.0, 1.0, "", "source", 14, 0, 0.0, 0.0, 0.0, 0, 0.0, 0.0, 0.0, 1.0, "", "source", 15, 0, 0.0, 0.0, 0.0, 0, 0.0, 0.0, 0.0, 1.0, "", "source", 16, 0, 0.0, 0.0, 0.0, 0, 0.0, 0.0, 0.0, 1.0, "", "source", 17, 0, 0.0, 0.0, 0.0, 0, 0.0, 0.0, 0.0, 1.0, "", "source", 18, 0, 0.0, 0.0, 0.0, 0, 0.0, 0.0, 0.0, 1.0, "", "source", 19, 0, 0.0, 0.0, 0.0, 0, 0.0, 0.0, 0.0, 1.0, "", "source", 20, 0, 0.0, 0.0, 0.0, 0, 0.0, 0.0, 0.0, 1.0, "", "source", 21, 0, 0.0, 0.0, 0.0, 0, 0.0, 0.0, 0.0, 1.0, "", "source", 22, 0, 0.0, 0.0, 0.0, 0, 0.0, 0.0, 0.0, 1.0, "", "source", 23, 0, 0.0, 0.0, 0.0, 0, 0.0, 0.0, 0.0, 1.0, "", "source", 24, 0, 0.0, 0.0, 0.0, 0, 0.0, 0.0, 0.0, 1.0, "", "source", 25, 0, 0.0, 0.0, 0.0, 0, 0.0, 0.0, 0.0, 1.0, "", "source", 26, 0, 0.0, 0.0, 0.0, 0, 0.0, 0.0, 0.0, 1.0, "", "source", 27, 0, 0.0, 0.0, 0.0, 0, 0.0, 0.0, 0.0, 1.0, "", "source", 28, 0, 0.0, 0.0, 0.0, 0, 0.0, 0.0, 0.0, 1.0, "", "source", 29, 0, 0.0, 0.0, 0.0, 0, 0.0, 0.0, 0.0, 1.0, "", "source", 30, 0, 0.0, 0.0, 0.0, 0, 0.0, 0.0, 0.0, 1.0, "", "source", 31, 0, 0.0, 0.0, 0.0, 0, 0.0, 0.0, 0.0, 1.0, "", "source", 32, 0, 0.0, 0.0, 0.0, 0, 0.0, 0.0, 0.0, 1.0, "", "source", 33, 0, 0.0, 0.0, 0.0, 0, 0.0, 0.0, 0.0, 1.0, "", "source", 34, 0, 0.0, 0.0, 0.0, 0, 0.0, 0.0, 0.0, 1.0, "", "source", 35, 0, 0.0, 0.0, 0.0, 0, 0.0, 0.0, 0.0, 1.0, "", "source", 36, 0, 0.0, 0.0, 0.0, 0, 0.0, 0.0, 0.0, 1.0, "", "source", 37, 0, 0.0, 0.0, 0.0, 0, 0.0, 0.0, 0.0, 1.0, "", "source", 38, 0, 0.0, 0.0, 0.0, 0, 0.0, 0.0, 0.0, 1.0, "", "source", 39, 0, 0.0, 0.0, 0.0, 0, 0.0, 0.0, 0.0, 1.0, "", "source", 40, 0, 0.0, 0.0, 0.0, 0, 0.0, 0.0, 0.0, 1.0, "", "source", 41, 0, 0.0, 0.0, 0.0, 0, 0.0, 0.0, 0.0, 1.0, "", "source", 42, 0, 0.0, 0.0, 0.0, 0, 0.0, 0.0, 0.0, 1.0, "", "source", 43, 0, 0.0, 0.0, 0.0, 0, 0.0, 0.0, 0.0, 1.0, "", "source", 44, 0, 0.0, 0.0, 0.0, 0, 0.0, 0.0, 0.0, 1.0, "", "source", 45, 0, 0.0, 0.0, 0.0, 0, 0.0, 0.0, 0.0, 1.0, "", "source", 46, 0, 0.0, 0.0, 0.0, 0, 0.0, 0.0, 0.0, 1.0, "", "source", 47, 0, 0.0, 0.0, 0.0, 0, 0.0, 0.0, 0.0, 1.0, "", "source", 48, 0, 0.0, 0.0, 0.0, 0, 0.0, 0.0, 0.0, 1.0, "", "source", 49, 0, 0.0, 0.0, 0.0, 0, 0.0, 0.0, 0.0, 1.0, "", "source", 50, 0, 0.0, 0.0, 0.0, 0, 0.0, 0.0, 0.0, 1.0, "", "source", 51, 0, 0.0, 0.0, 0.0, 0, 0.0, 0.0, 0.0, 1.0, "", "source", 52, 0, 0.0, 0.0, 0.0, 0, 0.0, 0.0, 0.0, 1.0, "", "source", 53, 0, 0.0, 0.0, 0.0, 0, 0.0, 0.0, 0.0, 1.0, "", "source", 54, 0, 0.0, 0.0, 0.0, 0, 0.0, 0.0, 0.0, 1.0, "", "source", 55, 0, 0.0, 0.0, 0.0, 0, 0.0, 0.0, 0.0, 1.0, "", "source", 56, 0, 0.0, 0.0, 0.0, 0, 0.0, 0.0, 0.0, 1.0, "", "source", 57, 0, 0.0, 0.0, 0.0, 0, 0.0, 0.0, 0.0, 1.0, "", "source", 58, 0, 0.0, 0.0, 0.0, 0, 0.0, 0.0, 0.0, 1.0, "", "source", 59, 0, 0.0, 0.0, 0.0, 0, 0.0, 0.0, 0.0, 1.0, "", "source", 60, 0, 0.0, 0.0, 0.0, 0, 0.0, 0.0, 0.0, 1.0, "", "source", 61, 0, 0.0, 0.0, 0.0, 0, 0.0, 0.0, 0.0, 1.0, "", "source", 62, 0, 0.0, 0.0, 0.0, 0, 0.0, 0.0, 0.0, 1.0, "", "source", 63, 0, 0.0, 0.0, 0.0, 0, 0.0, 0.0, 0.0, 1.0, "", "source", 64, 0, 0.0, 0.0, 0.0, 0, 0.0, 0.0, 0.0, 1.0, "", "_group_preset_data_", "group", 1, 0, "", 0.0, 0.0, 0.0, 0.0, "", "group", 2, 0, "", 0.0, 0.0, 0.0, 0.0, "", "group", 3, 0, "", 0.0, 0.0, 0.0, 0.0, "", "group", 4, 0, "", 0.0, 0.0, 0.0, 0.0, "", "group", 5, 0, "", 0.0, 0.0, 0.0, 0.0, "", "group", 6, 0, "", 0.0, 0.0, 0.0, 0.0, "", "group", 7, 0, "", 0.0, 0.0, 0.0, 0.0, "", "group", 8, 0, "", 0.0, 0.0, 0.0, 0.0, "", "group", 9, 0, "", 0.0, 0.0, 0.0, 0.0, "", "group", 10, 0, "", 0.0, 0.0, 0.0, 0.0, "", "group", 11, 0, "", 0.0, 0.0, 0.0, 0.0, "", "group", 12, 0, "", 0.0, 0.0, 0.0, 0.0, "", "group", 13, 0, "", 0.0, 0.0, 0.0, 0.0, "", "group", 14, 0, "", 0.0, 0.0, 0.0, 0.0, "", "group", 15, 0, "", 0.0, 0.0, 0.0, 0.0, "", "group", 16, 0, "", 0.0, 0.0, 0.0, 0.0, "", "group", 17, 0, "", 0.0, 0.0, 0.0, 0.0, "", "group", 18, 0, "", 0.0, 0.0, 0.0, 0.0, "", "group", 19, 0, "", 0.0, 0.0, 0.0, 0.0, "", "group", 20, 0, "", 0.0, 0.0, 0.0, 0.0, "", "group", 21, 0, "", 0.0, 0.0, 0.0, 0.0, "", "group", 22, 0, "", 0.0, 0.0, 0.0, 0.0, "", "group", 23, 0, "", 0.0, 0.0, 0.0, 0.0, "", "group", 24, 0, "", 0.0, 0.0, 0.0, 0.0, "", "group", 25, 0, "", 0.0, 0.0, 0.0, 0.0, "", "group", 26, 0, "", 0.0, 0.0, 0.0, 0.0, "", "group", 27, 0, "", 0.0, 0.0, 0.0, 0.0, "", "group", 28, 0, "", 0.0, 0.0, 0.0, 0.0, "", "group", 29, 0, "", 0.0, 0.0, 0.0, 0.0, "", "group", 30, 0, "", 0.0, 0.0, 0.0, 0.0, "", "group", 31, 0, "", 0.0, 0.0, 0.0, 0.0, "", "group", 32, 0, "", 0.0, 0.0, 0.0, 0.0, "", "group", 33, 0, "", 0.0, 0.0, 0.0, 0.0, "", "group", 34, 0, "", 0.0, 0.0, 0.0, 0.0, "", "group", 35, 0, "", 0.0, 0.0, 0.0, 0.0, "", "group", 36, 0, "", 0.0, 0.0, 0.0, 0.0, "", "group", 37, 0, "", 0.0, 0.0, 0.0, 0.0, "", "group", 38, 0, "", 0.0, 0.0, 0.0, 0.0, "", "group", 39, 0, "", 0.0, 0.0, 0.0, 0.0, "", "group", 40, 0, "", 0.0, 0.0, 0.0, 0.0, "", "group", 41, 0, "", 0.0, 0.0, 0.0, 0.0, "", "group", 42, 0, "", 0.0, 0.0, 0.0, 0.0, "", "group", 43, 0, "", 0.0, 0.0, 0.0, 0.0, "", "group", 44, 0, "", 0.0, 0.0, 0.0, 0.0, "", "group", 45, 0, "", 0.0, 0.0, 0.0, 0.0, "", "group", 46, 0, "", 0.0, 0.0, 0.0, 0.0, "", "group", 47, 0, "", 0.0, 0.0, 0.0, 0.0, "", "group", 48, 0, "", 0.0, 0.0, 0.0, 0.0, "", "group", 49, 0, "", 0.0, 0.0, 0.0, 0.0, "", "group", 50, 0, "", 0.0, 0.0, 0.0, 0.0, "", "group", 51, 0, "", 0.0, 0.0, 0.0, 0.0, "", "group", 52, 0, "", 0.0, 0.0, 0.0, 0.0, "", "group", 53, 0, "", 0.0, 0.0, 0.0, 0.0, "", "group", 54, 0, "", 0.0, 0.0, 0.0, 0.0, "", "group", 55, 0, "", 0.0, 0.0, 0.0, 0.0, "", "group", 56, 0, "", 0.0, 0.0, 0.0, 0.0, "", "group", 57, 0, "", 0.0, 0.0, 0.0, 0.0, "", "group", 58, 0, "", 0.0, 0.0, 0.0, 0.0, "", "group", 59, 0, "", 0.0, 0.0, 0.0, 0.0, "", "group", 60, 0, "", 0.0, 0.0, 0.0, 0.0, "", "group", 61, 0, "", 0.0, 0.0, 0.0, 0.0, "", "group", 62, 0, "", 0.0, 0.0, 0.0, 0.0, "", "group", 63, 0, "", 0.0, 0.0, 0.0, 0.0, "", "group", 64, 0, "", 0.0, 0.0, 0.0, 0.0, "" ],
					"maxclass" : "hoa.map",
					"numinlets" : 1,
					"numoutlets" : 3,
					"outlettype" : [ "list", "list", "list" ],
					"parameter_enable" : 0,
					"patching_rect" : [ 33.0, 833.0, 220.0, 220.0 ],
					"presentation" : 1,
					"presentation_rect" : [ 42.0, 608.0, 655.0, 655.0 ],
					"zoom" : 0.845703
				}

			}
, 			{
				"box" : 				{
					"id" : "obj-28",
					"maxclass" : "newobj",
					"numinlets" : 2,
					"numoutlets" : 2,
					"outlettype" : [ "bang", "" ],
					"patching_rect" : [ 13.0, 208.0, 69.0, 22.0 ],
					"presentation" : 1,
					"presentation_rect" : [ 63.5, 205.0, 248.0, 22.0 ],
					"style" : "",
					"text" : "sel toggle1",
					"textjustification" : 1
				}

			}
, 			{
				"box" : 				{
					"id" : "obj-23",
					"maxclass" : "newobj",
					"numinlets" : 2,
					"numoutlets" : 2,
					"outlettype" : [ "", "" ],
					"patching_rect" : [ 13.0, 151.333344, 48.0, 22.0 ],
					"presentation" : 1,
					"presentation_rect" : [ 55.0, 165.0, 48.0, 22.0 ],
					"style" : "",
					"text" : "route 2",
					"textjustification" : 1
				}

			}
, 			{
				"box" : 				{
					"id" : "obj-12",
					"maxclass" : "newobj",
					"numinlets" : 2,
					"numoutlets" : 2,
					"outlettype" : [ "", "" ],
					"patching_rect" : [ 128.0, 49.0, 57.0, 22.0 ],
					"style" : "",
					"text" : "zl.slice 1"
				}

			}
, 			{
				"box" : 				{
					"id" : "obj-25",
					"maxclass" : "newobj",
					"numinlets" : 1,
					"numoutlets" : 1,
					"outlettype" : [ "" ],
					"patching_rect" : [ 128.0, 109.0, 145.0, 22.0 ],
					"style" : "",
					"text" : "fromsymbol @separator /"
				}

			}
, 			{
				"box" : 				{
					"format" : 6,
					"id" : "obj-18",
					"maxclass" : "flonum",
					"maximum" : 2.0,
					"minimum" : -2.0,
					"numinlets" : 1,
					"numoutlets" : 2,
					"outlettype" : [ "", "bang" ],
					"parameter_enable" : 0,
					"patching_rect" : [ 99.0, 443.666656, 50.0, 22.0 ],
					"style" : ""
				}

			}
, 			{
				"box" : 				{
					"format" : 6,
					"id" : "obj-16",
					"maxclass" : "flonum",
					"maximum" : 2.0,
					"minimum" : -2.0,
					"numinlets" : 1,
					"numoutlets" : 2,
					"outlettype" : [ "", "bang" ],
					"parameter_enable" : 0,
					"patching_rect" : [ 33.0, 443.666656, 50.0, 22.0 ],
					"style" : ""
				}

			}
, 			{
				"box" : 				{
					"id" : "obj-13",
					"linecount" : 2,
					"maxclass" : "newobj",
					"numinlets" : 5,
					"numoutlets" : 1,
					"outlettype" : [ "" ],
					"patching_rect" : [ 33.0, 774.0, 116.0, 35.0 ],
					"style" : "",
					"text" : "pak source 1 cartesian 0. 0."
				}

			}
, 			{
				"box" : 				{
					"angle" : 270.0,
					"background" : 1,
					"grad1" : [ 0.862745, 0.870588, 0.878431, 1.0 ],
					"grad2" : [ 0.65098, 0.666667, 0.662745, 1.0 ],
					"id" : "obj-89",
					"maxclass" : "panel",
					"mode" : 1,
					"numinlets" : 1,
					"numoutlets" : 0,
					"patching_rect" : [ 743.5, 263.0, 380.0, 152.0 ],
					"presentation" : 1,
					"presentation_rect" : [ 702.666687, 605.0, 374.0, 142.0 ],
					"proportion" : 0.39,
					"style" : ""
				}

			}
, 			{
				"box" : 				{
					"angle" : 270.0,
					"background" : 1,
					"grad1" : [ 0.952941, 0.564706, 0.098039, 1.0 ],
					"grad2" : [ 0.741176, 0.356863, 0.047059, 1.0 ],
					"id" : "obj-76",
					"maxclass" : "panel",
					"mode" : 1,
					"numinlets" : 1,
					"numoutlets" : 0,
					"patching_rect" : [ 743.5, 423.0, 507.833374, 338.0 ],
					"presentation" : 1,
					"presentation_rect" : [ 702.666687, 130.0, 145.0, 133.0 ],
					"proportion" : 0.39,
					"style" : ""
				}

			}
, 			{
				"box" : 				{
					"angle" : 270.0,
					"background" : 1,
					"bordercolor" : [ 0.317647, 0.654902, 0.976471, 1.0 ],
					"grad1" : [ 0.043137, 0.364706, 0.094118, 1.0 ],
					"grad2" : [ 0.439216, 0.74902, 0.254902, 0.48 ],
					"id" : "obj-64",
					"maxclass" : "panel",
					"mode" : 1,
					"numinlets" : 1,
					"numoutlets" : 0,
					"patching_rect" : [ 145.0, 198.0, 165.0, 520.0 ],
					"presentation" : 1,
					"presentation_rect" : [ 331.0, 189.0, 272.0, 403.0 ],
					"proportion" : 0.39,
					"style" : ""
				}

			}
, 			{
				"box" : 				{
					"angle" : 270.0,
					"background" : 1,
					"bordercolor" : [ 0.317647, 0.654902, 0.976471, 1.0 ],
					"grad1" : [ 1.0, 1.0, 1.0, 0.49 ],
					"grad2" : [ 1.0, 1.0, 1.0, 0.57 ],
					"id" : "obj-63",
					"maxclass" : "panel",
					"mode" : 1,
					"numinlets" : 1,
					"numoutlets" : 0,
					"patching_rect" : [ 7.0, 198.0, 161.333313, 520.0 ],
					"presentation" : 1,
					"presentation_rect" : [ 55.0, 189.0, 272.0, 403.0 ],
					"proportion" : 0.39,
					"style" : ""
				}

			}
, 			{
				"box" : 				{
					"angle" : 270.0,
					"background" : 1,
					"grad1" : [ 0.92549, 0.364706, 0.341176, 1.0 ],
					"grad2" : [ 0.784314, 0.145098, 0.023529, 1.0 ],
					"id" : "obj-65",
					"maxclass" : "panel",
					"mode" : 1,
					"numinlets" : 1,
					"numoutlets" : 0,
					"patching_rect" : [ 601.333374, 198.0, 74.666626, 76.0 ],
					"presentation" : 1,
					"presentation_rect" : [ 605.0, 189.0, 71.0, 62.0 ],
					"proportion" : 0.39,
					"style" : ""
				}

			}
, 			{
				"box" : 				{
					"angle" : 270.0,
					"background" : 1,
					"grad1" : [ 0.701961, 0.415686, 0.886275, 1.0 ],
					"grad2" : [ 0.701961, 0.415686, 0.886275, 1.0 ],
					"id" : "obj-71",
					"maxclass" : "panel",
					"mode" : 1,
					"numinlets" : 1,
					"numoutlets" : 0,
					"patching_rect" : [ 7.0, 142.0, 713.0, 625.0 ],
					"presentation" : 1,
					"presentation_rect" : [ 42.0, 130.0, 655.0, 473.0 ],
					"proportion" : 0.39,
					"style" : ""
				}

			}
, 			{
				"box" : 				{
					"angle" : 270.0,
					"background" : 1,
					"grad1" : [ 0.317647, 0.654902, 0.976471, 0.73 ],
					"grad2" : [ 0.086275, 0.309804, 0.52549, 0.69 ],
					"id" : "obj-104",
					"maxclass" : "panel",
					"mode" : 1,
					"numinlets" : 1,
					"numoutlets" : 0,
					"patching_rect" : [ 307.833374, 778.0, 1508.0, 391.0 ],
					"presentation" : 1,
					"presentation_rect" : [ 702.666687, 749.0, 774.0, 514.0 ],
					"proportion" : 0.39,
					"style" : ""
				}

			}
 ],
		"lines" : [ 			{
				"patchline" : 				{
					"destination" : [ "obj-2", 0 ],
					"disabled" : 0,
					"hidden" : 0,
					"source" : [ "obj-1", 0 ]
				}

			}
, 			{
				"patchline" : 				{
					"destination" : [ "obj-123", 0 ],
					"disabled" : 0,
					"hidden" : 0,
					"source" : [ "obj-10", 0 ]
				}

			}
, 			{
				"patchline" : 				{
					"destination" : [ "obj-15", 0 ],
					"disabled" : 0,
					"hidden" : 0,
					"source" : [ "obj-102", 0 ]
				}

			}
, 			{
				"patchline" : 				{
					"destination" : [ "obj-10", 0 ],
					"disabled" : 0,
					"hidden" : 0,
					"source" : [ "obj-103", 0 ]
				}

			}
, 			{
				"patchline" : 				{
					"destination" : [ "obj-111", 0 ],
					"disabled" : 0,
					"hidden" : 0,
					"source" : [ "obj-105", 0 ]
				}

			}
, 			{
				"patchline" : 				{
					"destination" : [ "obj-111", 0 ],
					"disabled" : 0,
					"hidden" : 0,
					"source" : [ "obj-106", 0 ]
				}

			}
, 			{
				"patchline" : 				{
					"destination" : [ "obj-105", 0 ],
					"disabled" : 0,
					"hidden" : 0,
					"source" : [ "obj-107", 2 ]
				}

			}
, 			{
				"patchline" : 				{
					"destination" : [ "obj-105", 0 ],
					"disabled" : 0,
					"hidden" : 0,
					"source" : [ "obj-107", 1 ]
				}

			}
, 			{
				"patchline" : 				{
					"destination" : [ "obj-106", 0 ],
					"disabled" : 0,
					"hidden" : 0,
					"source" : [ "obj-107", 0 ]
				}

			}
, 			{
				"patchline" : 				{
					"destination" : [ "obj-110", 0 ],
					"disabled" : 0,
					"hidden" : 0,
					"source" : [ "obj-111", 0 ]
				}

			}
, 			{
				"patchline" : 				{
					"destination" : [ "obj-110", 0 ],
					"disabled" : 0,
					"hidden" : 0,
					"source" : [ "obj-112", 0 ]
				}

			}
, 			{
				"patchline" : 				{
					"destination" : [ "obj-110", 0 ],
					"disabled" : 0,
					"hidden" : 0,
					"source" : [ "obj-113", 0 ]
				}

			}
, 			{
				"patchline" : 				{
					"destination" : [ "obj-110", 0 ],
					"disabled" : 0,
					"hidden" : 0,
					"source" : [ "obj-114", 0 ]
				}

			}
, 			{
				"patchline" : 				{
					"destination" : [ "obj-110", 0 ],
					"disabled" : 0,
					"hidden" : 0,
					"source" : [ "obj-115", 0 ]
				}

			}
, 			{
				"patchline" : 				{
					"destination" : [ "obj-100", 0 ],
					"disabled" : 0,
					"hidden" : 0,
					"source" : [ "obj-12", 1 ]
				}

			}
, 			{
				"patchline" : 				{
					"destination" : [ "obj-25", 0 ],
					"disabled" : 0,
					"hidden" : 0,
					"source" : [ "obj-12", 0 ]
				}

			}
, 			{
				"patchline" : 				{
					"destination" : [ "obj-122", 0 ],
					"disabled" : 0,
					"hidden" : 0,
					"source" : [ "obj-121", 0 ]
				}

			}
, 			{
				"patchline" : 				{
					"destination" : [ "obj-126", 0 ],
					"disabled" : 0,
					"hidden" : 0,
					"source" : [ "obj-127", 0 ]
				}

			}
, 			{
				"patchline" : 				{
					"destination" : [ "obj-12", 0 ],
					"disabled" : 0,
					"hidden" : 0,
					"source" : [ "obj-128", 0 ]
				}

			}
, 			{
				"patchline" : 				{
					"destination" : [ "obj-53", 0 ],
					"disabled" : 0,
					"hidden" : 0,
					"source" : [ "obj-13", 0 ]
				}

			}
, 			{
				"patchline" : 				{
					"destination" : [ "obj-116", 0 ],
					"disabled" : 0,
					"hidden" : 0,
					"source" : [ "obj-130", 0 ]
				}

			}
, 			{
				"patchline" : 				{
					"destination" : [ "obj-132", 0 ],
					"disabled" : 0,
					"hidden" : 0,
					"source" : [ "obj-131", 0 ]
				}

			}
, 			{
				"patchline" : 				{
					"destination" : [ "obj-72", 0 ],
					"disabled" : 0,
					"hidden" : 0,
					"source" : [ "obj-134", 1 ]
				}

			}
, 			{
				"patchline" : 				{
					"destination" : [ "obj-73", 0 ],
					"disabled" : 0,
					"hidden" : 0,
					"source" : [ "obj-137", 1 ]
				}

			}
, 			{
				"patchline" : 				{
					"destination" : [ "obj-162", 1 ],
					"disabled" : 0,
					"hidden" : 0,
					"source" : [ "obj-14", 0 ]
				}

			}
, 			{
				"patchline" : 				{
					"destination" : [ "obj-19", 0 ],
					"disabled" : 0,
					"hidden" : 0,
					"source" : [ "obj-140", 0 ]
				}

			}
, 			{
				"patchline" : 				{
					"destination" : [ "obj-53", 0 ],
					"disabled" : 0,
					"hidden" : 0,
					"midpoints" : [ 161.25, 818.0, 42.5, 818.0 ],
					"source" : [ "obj-141", 0 ]
				}

			}
, 			{
				"patchline" : 				{
					"destination" : [ "obj-147", 0 ],
					"disabled" : 0,
					"hidden" : 0,
					"source" : [ "obj-143", 1 ]
				}

			}
, 			{
				"patchline" : 				{
					"destination" : [ "obj-148", 0 ],
					"disabled" : 0,
					"hidden" : 0,
					"source" : [ "obj-144", 1 ]
				}

			}
, 			{
				"patchline" : 				{
					"destination" : [ "obj-143", 1 ],
					"disabled" : 0,
					"hidden" : 0,
					"source" : [ "obj-145", 0 ]
				}

			}
, 			{
				"patchline" : 				{
					"destination" : [ "obj-144", 1 ],
					"disabled" : 0,
					"hidden" : 0,
					"source" : [ "obj-146", 0 ]
				}

			}
, 			{
				"patchline" : 				{
					"destination" : [ "obj-149", 0 ],
					"disabled" : 0,
					"hidden" : 0,
					"source" : [ "obj-147", 0 ]
				}

			}
, 			{
				"patchline" : 				{
					"destination" : [ "obj-150", 0 ],
					"disabled" : 0,
					"hidden" : 0,
					"source" : [ "obj-148", 0 ]
				}

			}
, 			{
				"patchline" : 				{
					"destination" : [ "obj-141", 4 ],
					"disabled" : 0,
					"hidden" : 0,
					"midpoints" : [ 249.5, 468.0, 324.0, 468.0, 324.0, 768.0, 243.5, 768.0 ],
					"source" : [ "obj-149", 0 ]
				}

			}
, 			{
				"patchline" : 				{
					"destination" : [ "obj-45", 0 ],
					"disabled" : 0,
					"hidden" : 0,
					"midpoints" : [ 249.5, 468.0, 237.0, 468.0, 237.0, 510.0, 249.5, 510.0 ],
					"source" : [ "obj-149", 0 ]
				}

			}
, 			{
				"patchline" : 				{
					"destination" : [ "obj-6", 0 ],
					"disabled" : 0,
					"hidden" : 0,
					"source" : [ "obj-15", 0 ]
				}

			}
, 			{
				"patchline" : 				{
					"destination" : [ "obj-141", 3 ],
					"disabled" : 0,
					"hidden" : 0,
					"midpoints" : [ 181.25, 468.0, 324.0, 468.0, 324.0, 768.0, 222.9375, 768.0 ],
					"source" : [ "obj-150", 0 ]
				}

			}
, 			{
				"patchline" : 				{
					"destination" : [ "obj-43", 0 ],
					"disabled" : 0,
					"hidden" : 0,
					"midpoints" : [ 181.25, 468.0, 168.0, 468.0, 168.0, 510.0, 181.25, 510.0 ],
					"source" : [ "obj-150", 0 ]
				}

			}
, 			{
				"patchline" : 				{
					"destination" : [ "obj-173", 0 ],
					"disabled" : 0,
					"hidden" : 0,
					"source" : [ "obj-154", 1 ]
				}

			}
, 			{
				"patchline" : 				{
					"destination" : [ "obj-44", 0 ],
					"disabled" : 0,
					"hidden" : 0,
					"source" : [ "obj-159", 1 ]
				}

			}
, 			{
				"patchline" : 				{
					"destination" : [ "obj-77", 0 ],
					"disabled" : 0,
					"hidden" : 0,
					"source" : [ "obj-159", 0 ]
				}

			}
, 			{
				"patchline" : 				{
					"destination" : [ "obj-13", 3 ],
					"disabled" : 0,
					"hidden" : 0,
					"midpoints" : [ 42.5, 468.0, 18.0, 468.0, 18.0, 759.0, 115.25, 759.0 ],
					"source" : [ "obj-16", 0 ]
				}

			}
, 			{
				"patchline" : 				{
					"destination" : [ "obj-40", 0 ],
					"disabled" : 0,
					"hidden" : 0,
					"midpoints" : [ 42.5, 468.0, 30.0, 468.0, 30.0, 510.0, 42.5, 510.0 ],
					"source" : [ "obj-16", 0 ]
				}

			}
, 			{
				"patchline" : 				{
					"destination" : [ "obj-159", 0 ],
					"disabled" : 0,
					"hidden" : 0,
					"source" : [ "obj-160", 1 ]
				}

			}
, 			{
				"patchline" : 				{
					"destination" : [ "obj-75", 0 ],
					"disabled" : 0,
					"hidden" : 0,
					"source" : [ "obj-160", 0 ]
				}

			}
, 			{
				"patchline" : 				{
					"destination" : [ "obj-160", 0 ],
					"disabled" : 0,
					"hidden" : 0,
					"source" : [ "obj-161", 1 ]
				}

			}
, 			{
				"patchline" : 				{
					"destination" : [ "obj-74", 0 ],
					"disabled" : 0,
					"hidden" : 0,
					"source" : [ "obj-161", 0 ]
				}

			}
, 			{
				"patchline" : 				{
					"destination" : [ "obj-174", 0 ],
					"disabled" : 0,
					"hidden" : 0,
					"source" : [ "obj-162", 1 ]
				}

			}
, 			{
				"patchline" : 				{
					"destination" : [ "obj-161", 0 ],
					"disabled" : 0,
					"hidden" : 0,
					"source" : [ "obj-164", 1 ]
				}

			}
, 			{
				"patchline" : 				{
					"destination" : [ "obj-163", 1 ],
					"disabled" : 0,
					"hidden" : 0,
					"source" : [ "obj-164", 0 ]
				}

			}
, 			{
				"patchline" : 				{
					"destination" : [ "obj-42", 0 ],
					"disabled" : 0,
					"hidden" : 0,
					"source" : [ "obj-165", 1 ]
				}

			}
, 			{
				"patchline" : 				{
					"destination" : [ "obj-78", 0 ],
					"disabled" : 0,
					"hidden" : 0,
					"source" : [ "obj-165", 0 ]
				}

			}
, 			{
				"patchline" : 				{
					"destination" : [ "obj-165", 0 ],
					"disabled" : 0,
					"hidden" : 0,
					"source" : [ "obj-166", 1 ]
				}

			}
, 			{
				"patchline" : 				{
					"destination" : [ "obj-79", 0 ],
					"disabled" : 0,
					"hidden" : 0,
					"source" : [ "obj-166", 0 ]
				}

			}
, 			{
				"patchline" : 				{
					"destination" : [ "obj-156", 1 ],
					"disabled" : 0,
					"hidden" : 0,
					"source" : [ "obj-167", 0 ]
				}

			}
, 			{
				"patchline" : 				{
					"destination" : [ "obj-37", 0 ],
					"disabled" : 0,
					"hidden" : 0,
					"source" : [ "obj-167", 1 ]
				}

			}
, 			{
				"patchline" : 				{
					"destination" : [ "obj-143", 0 ],
					"disabled" : 0,
					"hidden" : 0,
					"midpoints" : [ 161.25, 276.0, 229.0, 276.0, 229.0, 324.0, 229.5, 324.0 ],
					"source" : [ "obj-172", 0 ]
				}

			}
, 			{
				"patchline" : 				{
					"destination" : [ "obj-144", 0 ],
					"disabled" : 0,
					"hidden" : 0,
					"source" : [ "obj-172", 0 ]
				}

			}
, 			{
				"patchline" : 				{
					"destination" : [ "obj-162", 0 ],
					"disabled" : 0,
					"hidden" : 0,
					"midpoints" : [ 161.25, 249.0, 498.833374, 249.0 ],
					"source" : [ "obj-172", 0 ]
				}

			}
, 			{
				"patchline" : 				{
					"destination" : [ "obj-22", 0 ],
					"disabled" : 0,
					"hidden" : 0,
					"source" : [ "obj-173", 0 ]
				}

			}
, 			{
				"patchline" : 				{
					"destination" : [ "obj-60", 0 ],
					"disabled" : 0,
					"hidden" : 0,
					"source" : [ "obj-173", 0 ]
				}

			}
, 			{
				"patchline" : 				{
					"destination" : [ "obj-34", 0 ],
					"disabled" : 0,
					"hidden" : 0,
					"source" : [ "obj-174", 0 ]
				}

			}
, 			{
				"patchline" : 				{
					"destination" : [ "obj-59", 0 ],
					"disabled" : 0,
					"hidden" : 0,
					"source" : [ "obj-174", 0 ]
				}

			}
, 			{
				"patchline" : 				{
					"destination" : [ "obj-13", 4 ],
					"disabled" : 0,
					"hidden" : 0,
					"midpoints" : [ 108.5, 468.0, 18.0, 468.0, 18.0, 759.0, 139.5, 759.0 ],
					"source" : [ "obj-18", 0 ]
				}

			}
, 			{
				"patchline" : 				{
					"destination" : [ "obj-41", 0 ],
					"disabled" : 0,
					"hidden" : 0,
					"midpoints" : [ 108.5, 468.0, 165.0, 468.0, 165.0, 510.0, 108.5, 510.0 ],
					"source" : [ "obj-18", 0 ]
				}

			}
, 			{
				"patchline" : 				{
					"destination" : [ "obj-164", 0 ],
					"disabled" : 0,
					"hidden" : 0,
					"source" : [ "obj-19", 1 ]
				}

			}
, 			{
				"patchline" : 				{
					"destination" : [ "obj-167", 0 ],
					"disabled" : 0,
					"hidden" : 0,
					"source" : [ "obj-19", 0 ]
				}

			}
, 			{
				"patchline" : 				{
					"destination" : [ "obj-21", 0 ],
					"disabled" : 0,
					"hidden" : 0,
					"source" : [ "obj-20", 0 ]
				}

			}
, 			{
				"patchline" : 				{
					"destination" : [ "obj-20", 0 ],
					"disabled" : 0,
					"hidden" : 0,
					"source" : [ "obj-22", 0 ]
				}

			}
, 			{
				"patchline" : 				{
					"destination" : [ "obj-1", 0 ],
					"disabled" : 0,
					"hidden" : 0,
					"midpoints" : [ 22.5, 192.0, 617.5, 192.0 ],
					"source" : [ "obj-23", 0 ]
				}

			}
, 			{
				"patchline" : 				{
					"destination" : [ "obj-172", 0 ],
					"disabled" : 0,
					"hidden" : 0,
					"source" : [ "obj-23", 0 ]
				}

			}
, 			{
				"patchline" : 				{
					"destination" : [ "obj-28", 0 ],
					"disabled" : 0,
					"hidden" : 0,
					"source" : [ "obj-23", 0 ]
				}

			}
, 			{
				"patchline" : 				{
					"destination" : [ "obj-23", 0 ],
					"disabled" : 0,
					"hidden" : 0,
					"midpoints" : [ 137.5, 147.0, 22.5, 147.0 ],
					"source" : [ "obj-25", 0 ]
				}

			}
, 			{
				"patchline" : 				{
					"destination" : [ "obj-134", 0 ],
					"disabled" : 0,
					"hidden" : 0,
					"source" : [ "obj-28", 0 ]
				}

			}
, 			{
				"patchline" : 				{
					"destination" : [ "obj-137", 0 ],
					"disabled" : 0,
					"hidden" : 0,
					"midpoints" : [ 22.5, 276.0, 88.0, 276.0, 88.0, 324.0, 88.5, 324.0 ],
					"source" : [ "obj-28", 0 ]
				}

			}
, 			{
				"patchline" : 				{
					"destination" : [ "obj-154", 0 ],
					"disabled" : 0,
					"hidden" : 0,
					"midpoints" : [ 22.5, 249.0, 328.833374, 249.0 ],
					"source" : [ "obj-28", 0 ]
				}

			}
, 			{
				"patchline" : 				{
					"destination" : [ "obj-38", 0 ],
					"disabled" : 0,
					"hidden" : 0,
					"source" : [ "obj-30", 0 ]
				}

			}
, 			{
				"patchline" : 				{
					"destination" : [ "obj-96", 0 ],
					"disabled" : 0,
					"hidden" : 0,
					"source" : [ "obj-30", 0 ]
				}

			}
, 			{
				"patchline" : 				{
					"destination" : [ "obj-97", 1 ],
					"disabled" : 0,
					"hidden" : 0,
					"source" : [ "obj-30", 0 ]
				}

			}
, 			{
				"patchline" : 				{
					"destination" : [ "obj-24", 0 ],
					"disabled" : 0,
					"hidden" : 0,
					"source" : [ "obj-31", 0 ]
				}

			}
, 			{
				"patchline" : 				{
					"destination" : [ "obj-33", 0 ],
					"disabled" : 0,
					"hidden" : 0,
					"source" : [ "obj-32", 0 ]
				}

			}
, 			{
				"patchline" : 				{
					"destination" : [ "obj-36", 0 ],
					"disabled" : 0,
					"hidden" : 0,
					"source" : [ "obj-34", 0 ]
				}

			}
, 			{
				"patchline" : 				{
					"destination" : [ "obj-35", 0 ],
					"disabled" : 0,
					"hidden" : 0,
					"source" : [ "obj-36", 0 ]
				}

			}
, 			{
				"patchline" : 				{
					"destination" : [ "obj-166", 0 ],
					"disabled" : 0,
					"hidden" : 0,
					"source" : [ "obj-37", 1 ]
				}

			}
, 			{
				"patchline" : 				{
					"destination" : [ "obj-80", 0 ],
					"disabled" : 0,
					"hidden" : 0,
					"source" : [ "obj-37", 0 ]
				}

			}
, 			{
				"patchline" : 				{
					"destination" : [ "obj-93", 0 ],
					"disabled" : 0,
					"hidden" : 0,
					"source" : [ "obj-38", 0 ]
				}

			}
, 			{
				"patchline" : 				{
					"destination" : [ "obj-94", 1 ],
					"disabled" : 0,
					"hidden" : 0,
					"source" : [ "obj-38", 0 ]
				}

			}
, 			{
				"patchline" : 				{
					"destination" : [ "obj-47", 0 ],
					"disabled" : 0,
					"hidden" : 0,
					"midpoints" : [ 42.5, 552.0, 47.0, 552.0 ],
					"source" : [ "obj-40", 0 ]
				}

			}
, 			{
				"patchline" : 				{
					"destination" : [ "obj-52", 0 ],
					"disabled" : 0,
					"hidden" : 0,
					"source" : [ "obj-41", 0 ]
				}

			}
, 			{
				"patchline" : 				{
					"destination" : [ "obj-81", 0 ],
					"disabled" : 0,
					"hidden" : 0,
					"source" : [ "obj-42", 0 ]
				}

			}
, 			{
				"patchline" : 				{
					"destination" : [ "obj-56", 0 ],
					"disabled" : 0,
					"hidden" : 0,
					"source" : [ "obj-43", 0 ]
				}

			}
, 			{
				"patchline" : 				{
					"destination" : [ "obj-82", 0 ],
					"disabled" : 0,
					"hidden" : 0,
					"source" : [ "obj-44", 0 ]
				}

			}
, 			{
				"patchline" : 				{
					"destination" : [ "obj-58", 0 ],
					"disabled" : 0,
					"hidden" : 0,
					"source" : [ "obj-45", 0 ]
				}

			}
, 			{
				"patchline" : 				{
					"destination" : [ "obj-47", 0 ],
					"disabled" : 0,
					"hidden" : 0,
					"midpoints" : [ 42.5, 510.0, 30.0, 510.0, 30.0, 552.0, 47.0, 552.0 ],
					"source" : [ "obj-50", 0 ]
				}

			}
, 			{
				"patchline" : 				{
					"destination" : [ "obj-52", 0 ],
					"disabled" : 0,
					"hidden" : 0,
					"midpoints" : [ 108.5, 510.0, 30.0, 510.0, 30.0, 552.0, 108.5, 552.0 ],
					"source" : [ "obj-51", 0 ]
				}

			}
, 			{
				"patchline" : 				{
					"destination" : [ "obj-9", 0 ],
					"disabled" : 0,
					"hidden" : 0,
					"source" : [ "obj-53", 0 ]
				}

			}
, 			{
				"patchline" : 				{
					"destination" : [ "obj-56", 0 ],
					"disabled" : 0,
					"hidden" : 0,
					"midpoints" : [ 181.25, 510.0, 168.0, 510.0, 168.0, 552.0, 181.25, 552.0 ],
					"source" : [ "obj-54", 0 ]
				}

			}
, 			{
				"patchline" : 				{
					"destination" : [ "obj-58", 0 ],
					"disabled" : 0,
					"hidden" : 0,
					"midpoints" : [ 249.5, 510.0, 237.0, 510.0, 237.0, 552.0, 249.5, 552.0 ],
					"source" : [ "obj-57", 0 ]
				}

			}
, 			{
				"patchline" : 				{
					"destination" : [ "obj-32", 0 ],
					"disabled" : 0,
					"hidden" : 0,
					"source" : [ "obj-59", 1 ]
				}

			}
, 			{
				"patchline" : 				{
					"destination" : [ "obj-103", 0 ],
					"disabled" : 0,
					"hidden" : 0,
					"source" : [ "obj-6", 0 ]
				}

			}
, 			{
				"patchline" : 				{
					"destination" : [ "obj-31", 0 ],
					"disabled" : 0,
					"hidden" : 0,
					"source" : [ "obj-60", 1 ]
				}

			}
, 			{
				"patchline" : 				{
					"destination" : [ "obj-60", 0 ],
					"disabled" : 0,
					"hidden" : 0,
					"source" : [ "obj-61", 0 ]
				}

			}
, 			{
				"patchline" : 				{
					"destination" : [ "obj-59", 0 ],
					"disabled" : 0,
					"hidden" : 0,
					"source" : [ "obj-62", 0 ]
				}

			}
, 			{
				"patchline" : 				{
					"destination" : [ "obj-110", 0 ],
					"disabled" : 0,
					"hidden" : 0,
					"source" : [ "obj-67", 0 ]
				}

			}
, 			{
				"patchline" : 				{
					"destination" : [ "obj-110", 0 ],
					"disabled" : 0,
					"hidden" : 0,
					"source" : [ "obj-69", 0 ]
				}

			}
, 			{
				"patchline" : 				{
					"destination" : [ "obj-154", 1 ],
					"disabled" : 0,
					"hidden" : 0,
					"source" : [ "obj-7", 0 ]
				}

			}
, 			{
				"patchline" : 				{
					"destination" : [ "obj-110", 0 ],
					"disabled" : 0,
					"hidden" : 0,
					"source" : [ "obj-70", 0 ]
				}

			}
, 			{
				"patchline" : 				{
					"destination" : [ "obj-16", 0 ],
					"disabled" : 0,
					"hidden" : 0,
					"source" : [ "obj-72", 0 ]
				}

			}
, 			{
				"patchline" : 				{
					"destination" : [ "obj-18", 0 ],
					"disabled" : 0,
					"hidden" : 0,
					"source" : [ "obj-73", 0 ]
				}

			}
, 			{
				"patchline" : 				{
					"destination" : [ "obj-114", 0 ],
					"disabled" : 0,
					"hidden" : 0,
					"source" : [ "obj-83", 0 ]
				}

			}
, 			{
				"patchline" : 				{
					"destination" : [ "obj-139", 1 ],
					"disabled" : 0,
					"hidden" : 0,
					"source" : [ "obj-83", 0 ]
				}

			}
, 			{
				"patchline" : 				{
					"destination" : [ "obj-67", 0 ],
					"disabled" : 0,
					"hidden" : 0,
					"source" : [ "obj-83", 0 ]
				}

			}
, 			{
				"patchline" : 				{
					"destination" : [ "obj-113", 0 ],
					"disabled" : 0,
					"hidden" : 0,
					"source" : [ "obj-84", 0 ]
				}

			}
, 			{
				"patchline" : 				{
					"destination" : [ "obj-138", 1 ],
					"disabled" : 0,
					"hidden" : 0,
					"source" : [ "obj-84", 0 ]
				}

			}
, 			{
				"patchline" : 				{
					"destination" : [ "obj-69", 0 ],
					"disabled" : 0,
					"hidden" : 0,
					"source" : [ "obj-84", 0 ]
				}

			}
, 			{
				"patchline" : 				{
					"destination" : [ "obj-112", 0 ],
					"disabled" : 0,
					"hidden" : 0,
					"source" : [ "obj-85", 0 ]
				}

			}
, 			{
				"patchline" : 				{
					"destination" : [ "obj-39", 1 ],
					"disabled" : 0,
					"hidden" : 0,
					"source" : [ "obj-85", 0 ]
				}

			}
, 			{
				"patchline" : 				{
					"destination" : [ "obj-70", 0 ],
					"disabled" : 0,
					"hidden" : 0,
					"source" : [ "obj-85", 0 ]
				}

			}
, 			{
				"patchline" : 				{
					"destination" : [ "obj-107", 0 ],
					"disabled" : 0,
					"hidden" : 0,
					"source" : [ "obj-86", 0 ]
				}

			}
, 			{
				"patchline" : 				{
					"destination" : [ "obj-115", 0 ],
					"disabled" : 0,
					"hidden" : 0,
					"source" : [ "obj-86", 0 ]
				}

			}
, 			{
				"patchline" : 				{
					"destination" : [ "obj-136", 1 ],
					"disabled" : 0,
					"hidden" : 0,
					"source" : [ "obj-86", 0 ]
				}

			}
, 			{
				"patchline" : 				{
					"destination" : [ "obj-134", 1 ],
					"disabled" : 0,
					"hidden" : 0,
					"source" : [ "obj-87", 0 ]
				}

			}
, 			{
				"patchline" : 				{
					"destination" : [ "obj-137", 1 ],
					"disabled" : 0,
					"hidden" : 0,
					"source" : [ "obj-88", 0 ]
				}

			}
, 			{
				"patchline" : 				{
					"destination" : [ "obj-98", 0 ],
					"disabled" : 0,
					"hidden" : 0,
					"source" : [ "obj-90", 0 ]
				}

			}
, 			{
				"patchline" : 				{
					"destination" : [ "obj-99", 1 ],
					"disabled" : 0,
					"hidden" : 0,
					"source" : [ "obj-90", 0 ]
				}

			}
, 			{
				"patchline" : 				{
					"destination" : [ "obj-102", 0 ],
					"disabled" : 0,
					"hidden" : 0,
					"source" : [ "obj-91", 0 ]
				}

			}
, 			{
				"patchline" : 				{
					"destination" : [ "obj-46", 0 ],
					"disabled" : 0,
					"hidden" : 0,
					"source" : [ "obj-93", 0 ]
				}

			}
, 			{
				"patchline" : 				{
					"destination" : [ "obj-48", 0 ],
					"disabled" : 0,
					"hidden" : 0,
					"source" : [ "obj-93", 1 ]
				}

			}
, 			{
				"patchline" : 				{
					"destination" : [ "obj-92", 1 ],
					"disabled" : 0,
					"hidden" : 0,
					"source" : [ "obj-93", 2 ]
				}

			}
, 			{
				"patchline" : 				{
					"destination" : [ "obj-95", 1 ],
					"disabled" : 0,
					"hidden" : 0,
					"source" : [ "obj-96", 0 ]
				}

			}
, 			{
				"patchline" : 				{
					"destination" : [ "obj-27", 1 ],
					"disabled" : 0,
					"hidden" : 0,
					"source" : [ "obj-98", 1 ]
				}

			}
, 			{
				"patchline" : 				{
					"destination" : [ "obj-29", 1 ],
					"disabled" : 0,
					"hidden" : 0,
					"source" : [ "obj-98", 0 ]
				}

			}
, 			{
				"patchline" : 				{
					"destination" : [ "obj-30", 0 ],
					"disabled" : 0,
					"hidden" : 0,
					"source" : [ "obj-98", 0 ]
				}

			}
 ],
		"dependency_cache" : [ 			{
				"name" : "hoa.map.mxo",
				"type" : "iLaX"
			}
 ],
		"autosave" : 0
	}

}
